<svg xmlns="http://www.w3.org/2000/svg" xmlns:xlink="http://www.w3.org/1999/xlink" width="37" zoomAndPan="magnify" viewBox="0 0 27.75 31.5" height="42" preserveAspectRatio="xMidYMid meet" version="1.0"><defs><g/><clipPath id="d440c6cdda"><path d="M 0.265625 0.3125 L 27 0.3125 L 27 30.871094 L 0.265625 30.871094 Z M 0.265625 0.3125 " clip-rule="nonzero"/></clipPath></defs><g clip-path="url(#d440c6cdda)"><path fill="#000000" d="M 26.699219 7.828125 L 13.933594 0.421875 C 13.769531 0.3125 13.550781 0.3125 13.386719 0.421875 L 0.617188 7.828125 C 0.453125 7.9375 0.34375 8.101562 0.34375 8.320312 L 0.34375 23.027344 C 0.34375 23.246094 0.453125 23.40625 0.617188 23.515625 L 13.386719 30.871094 C 13.496094 30.871094 13.550781 30.871094 13.660156 30.871094 C 13.769531 30.871094 13.824219 30.871094 13.933594 30.816406 L 26.699219 23.460938 C 26.863281 23.351562 26.972656 23.191406 26.972656 22.972656 L 26.972656 8.265625 C 26.972656 8.101562 26.863281 7.882812 26.699219 7.828125 Z M 25.882812 22.644531 L 13.660156 29.671875 L 1.4375 22.644531 L 1.4375 8.589844 L 13.660156 1.5625 L 25.882812 8.589844 Z M 25.882812 22.644531 " fill-opacity="1" fill-rule="nonzero"/></g><g fill="#000000" fill-opacity="1"><g transform="translate(7.242547, 21.236699)"><g><path d="M 13.5 -11.78125 L 7.796875 -11.78125 L 7.796875 0 L 6.15625 0 L 6.15625 -11.78125 L 0.453125 -11.78125 L 0.453125 -12.328125 L 13.5 -12.328125 Z M 13.5 -11.78125 "/></g></g></g><g fill="#000000" fill-opacity="1"><g transform="translate(0.707902, 21.239883)"><g><path d="M 12.046875 -11.5 L 12.046875 0 L 10.328125 0 L 2.203125 -10.453125 L 2.203125 0 L 1.609375 0 L 1.609375 -11.5 L 3.328125 -11.5 L 11.453125 -1.046875 L 11.453125 -11.5 Z M 12.046875 -11.5 "/></g></g></g><g fill="#000000" fill-opacity="1"><g transform="translate(7.234261, 14.339588)"><g><path d="M 0.34375 -0.796875 C 0.4375 -0.460938 0.71875 -0.296875 1.1875 -0.296875 C 1.507812 -0.296875 1.796875 -0.367188 2.046875 -0.515625 L 2.046875 -0.171875 C 1.929688 -0.0976562 1.789062 -0.0390625 1.625 0 C 1.46875 0.03125 1.296875 0.046875 1.109375 0.046875 C 0.929688 0.046875 0.773438 0.0078125 0.640625 -0.0625 C 0.503906 -0.132812 0.394531 -0.238281 0.3125 -0.375 C 0.238281 -0.519531 0.203125 -0.691406 0.203125 -0.890625 C 0.203125 -1.085938 0.242188 -1.273438 0.328125 -1.453125 C 0.410156 -1.628906 0.53125 -1.769531 0.6875 -1.875 C 0.851562 -1.988281 1.039062 -2.046875 1.25 -2.046875 C 1.425781 -2.046875 1.582031 -2.003906 1.71875 -1.921875 C 1.863281 -1.847656 1.972656 -1.738281 2.046875 -1.59375 C 2.128906 -1.457031 2.171875 -1.289062 2.171875 -1.09375 C 2.171875 -0.988281 2.15625 -0.890625 2.125 -0.796875 Z M 1.046875 -1.71875 C 0.804688 -1.71875 0.625 -1.660156 0.5 -1.546875 C 0.375 -1.429688 0.3125 -1.273438 0.3125 -1.078125 L 1.84375 -1.078125 L 1.84375 -1.09375 C 1.84375 -1.507812 1.578125 -1.71875 1.046875 -1.71875 Z M 1.046875 -1.71875 "/></g></g></g><g fill="#000000" fill-opacity="1"><g transform="translate(9.626322, 14.339588)"><g><path d="M 1.796875 0 L 1.03125 -0.9375 C 0.90625 -0.820312 0.804688 -0.6875 0.734375 -0.53125 C 0.660156 -0.375 0.59375 -0.195312 0.53125 0 L 0.078125 0 C 0.179688 -0.195312 0.300781 -0.375 0.4375 -0.53125 C 0.582031 -0.6875 0.765625 -0.832031 0.984375 -0.96875 L 0.125 -2.015625 L 0.546875 -2.015625 L 1.265625 -1.140625 C 1.390625 -1.265625 1.488281 -1.398438 1.5625 -1.546875 C 1.632812 -1.703125 1.6875 -1.859375 1.71875 -2.015625 L 2.171875 -2.015625 C 2.085938 -1.859375 1.960938 -1.691406 1.796875 -1.515625 C 1.640625 -1.347656 1.476562 -1.207031 1.3125 -1.09375 L 2.234375 0 Z M 1.796875 0 "/></g></g></g><g fill="#000000" fill-opacity="1"><g transform="translate(15.281775, 21.230848)"><g><path d="M 0.6875 -2.71875 L 0.6875 -2.3125 L 0.3125 -2.3125 L 0.3125 -2.71875 Z M 0.34375 -2 L 0.65625 -2 L 0.65625 0 L 0.34375 0 Z M 0.34375 -2 "/></g></g></g><g fill="#000000" fill-opacity="1"><g transform="translate(16.281691, 21.230848)"><g><path d="M 1.046875 -1.71875 C 0.804688 -1.707031 0.625 -1.640625 0.5 -1.515625 C 0.375 -1.398438 0.3125 -1.238281 0.3125 -1.03125 C 0.3125 -0.769531 0.394531 -0.578125 0.5625 -0.453125 C 0.726562 -0.335938 0.941406 -0.28125 1.203125 -0.28125 C 1.503906 -0.28125 1.78125 -0.359375 2.03125 -0.515625 L 2.03125 -0.15625 C 1.757812 -0.0195312 1.453125 0.046875 1.109375 0.046875 C 0.835938 0.046875 0.617188 -0.03125 0.453125 -0.1875 C 0.285156 -0.34375 0.203125 -0.5625 0.203125 -0.84375 C 0.203125 -1.050781 0.242188 -1.25 0.328125 -1.4375 C 0.410156 -1.625 0.53125 -1.769531 0.6875 -1.875 C 0.84375 -1.988281 1.03125 -2.046875 1.25 -2.046875 C 1.394531 -2.046875 1.523438 -2.03125 1.640625 -2 C 1.753906 -1.96875 1.875 -1.914062 2 -1.84375 L 2 -1.46875 C 1.863281 -1.5625 1.71875 -1.625 1.5625 -1.65625 C 1.40625 -1.695312 1.234375 -1.71875 1.046875 -1.71875 Z M 1.046875 -1.71875 "/></g></g></g><g fill="#000000" fill-opacity="1"><g transform="translate(18.589497, 21.230848)"><g><path d="M 1.875 0 L 1.09375 -1 C 0.957031 -0.914062 0.8125 -0.832031 0.65625 -0.75 L 0.65625 0 L 0.34375 0 L 0.34375 -2.796875 L 0.65625 -2.796875 L 0.65625 -0.84375 C 0.882812 -0.976562 1.085938 -1.140625 1.265625 -1.328125 C 1.453125 -1.523438 1.617188 -1.75 1.765625 -2 L 2.203125 -2 C 2.003906 -1.707031 1.722656 -1.429688 1.359375 -1.171875 L 2.28125 0 Z M 1.875 0 "/></g></g></g><g fill="#000000" fill-opacity="1"><g transform="translate(20.997294, 21.230848)"><g><path d="M 0.34375 -0.796875 C 0.4375 -0.453125 0.71875 -0.28125 1.1875 -0.28125 C 1.507812 -0.28125 1.789062 -0.359375 2.03125 -0.515625 L 2.03125 -0.15625 C 1.914062 -0.09375 1.78125 -0.0390625 1.625 0 C 1.46875 0.03125 1.296875 0.046875 1.109375 0.046875 C 0.929688 0.046875 0.773438 0.0078125 0.640625 -0.0625 C 0.503906 -0.132812 0.394531 -0.238281 0.3125 -0.375 C 0.238281 -0.519531 0.203125 -0.691406 0.203125 -0.890625 C 0.203125 -1.085938 0.242188 -1.273438 0.328125 -1.453125 C 0.410156 -1.628906 0.53125 -1.769531 0.6875 -1.875 C 0.851562 -1.988281 1.039062 -2.046875 1.25 -2.046875 C 1.425781 -2.046875 1.582031 -2.003906 1.71875 -1.921875 C 1.851562 -1.847656 1.957031 -1.738281 2.03125 -1.59375 C 2.113281 -1.457031 2.15625 -1.289062 2.15625 -1.09375 C 2.15625 -0.988281 2.144531 -0.890625 2.125 -0.796875 Z M 1.046875 -1.71875 C 0.804688 -1.71875 0.625 -1.660156 0.5 -1.546875 C 0.375 -1.429688 0.3125 -1.273438 0.3125 -1.078125 L 1.84375 -1.078125 L 1.84375 -1.09375 C 1.84375 -1.507812 1.578125 -1.71875 1.046875 -1.71875 Z M 1.046875 -1.71875 "/></g></g></g><g fill="#000000" fill-opacity="1"><g transform="translate(23.381093, 21.230848)"><g><path d="M 1.0625 -0.265625 C 1.175781 -0.265625 1.300781 -0.285156 1.4375 -0.328125 L 1.4375 -0.03125 C 1.28125 0.0195312 1.117188 0.046875 0.953125 0.046875 C 0.710938 0.046875 0.539062 -0.0195312 0.4375 -0.15625 C 0.34375 -0.300781 0.296875 -0.503906 0.296875 -0.765625 C 0.296875 -1.078125 0.398438 -1.394531 0.609375 -1.71875 L 0.015625 -1.71875 L 0.015625 -1.78125 C 0.210938 -1.8125 0.351562 -1.890625 0.4375 -2.015625 C 0.519531 -2.140625 0.578125 -2.320312 0.609375 -2.5625 L 0.65625 -2.5625 L 0.65625 -2 L 1.46875 -2 L 1.46875 -1.71875 L 0.65625 -1.71875 C 0.625 -1.46875 0.609375 -1.171875 0.609375 -0.828125 C 0.609375 -0.691406 0.617188 -0.582031 0.640625 -0.5 C 0.671875 -0.425781 0.71875 -0.367188 0.78125 -0.328125 C 0.84375 -0.285156 0.9375 -0.265625 1.0625 -0.265625 Z M 1.0625 -0.265625 "/></g></g></g></svg>