<svg xmlns="http://www.w3.org/2000/svg" xmlns:xlink="http://www.w3.org/1999/xlink" width="98" zoomAndPan="magnify" viewBox="0 0 73.5 71.249999" height="95" preserveAspectRatio="xMidYMid meet" version="1.0"><defs><g/><clipPath id="9fd794bc67"><path d="M 2.183594 1.921875 L 70.183594 1.921875 L 70.183594 69.917969 L 2.183594 69.917969 Z M 2.183594 1.921875 " clip-rule="nonzero"/></clipPath><clipPath id="454872178d"><path d="M 1.417969 1.15625 L 70.910156 1.15625 L 70.910156 70.507812 L 1.417969 70.507812 Z M 1.417969 1.15625 " clip-rule="nonzero"/></clipPath><clipPath id="e1ba00a59f"><path d="M 0.839844 0.578125 L 71.082031 0.578125 L 71.082031 70.507812 L 0.839844 70.507812 Z M 0.839844 0.578125 " clip-rule="nonzero"/></clipPath></defs><g clip-path="url(#9fd794bc67)"><path fill="#000000" d="M 70.183594 35.921875 C 70.183594 37.035156 70.128906 38.144531 70.019531 39.253906 C 69.910156 40.359375 69.746094 41.460938 69.53125 42.554688 C 69.3125 43.644531 69.042969 44.722656 68.71875 45.789062 C 68.394531 46.855469 68.023438 47.902344 67.59375 48.929688 C 67.167969 49.960938 66.695312 50.964844 66.167969 51.949219 C 65.644531 52.929688 65.074219 53.882812 64.453125 54.808594 C 63.835938 55.734375 63.171875 56.628906 62.464844 57.488281 C 61.761719 58.351562 61.011719 59.175781 60.226562 59.960938 C 59.4375 60.75 58.613281 61.496094 57.753906 62.203125 C 56.890625 62.910156 56 63.570312 55.074219 64.191406 C 54.148438 64.808594 53.195312 65.378906 52.210938 65.90625 C 51.230469 66.429688 50.222656 66.90625 49.195312 67.332031 C 48.167969 67.757812 47.121094 68.132812 46.054688 68.457031 C 44.988281 68.777344 43.910156 69.050781 42.816406 69.265625 C 41.726562 69.484375 40.625 69.648438 39.515625 69.757812 C 38.410156 69.863281 37.296875 69.917969 36.183594 69.917969 C 35.070312 69.917969 33.960938 69.863281 32.851562 69.757812 C 31.742188 69.648438 30.644531 69.484375 29.550781 69.265625 C 28.460938 69.050781 27.378906 68.777344 26.316406 68.457031 C 25.25 68.132812 24.203125 67.757812 23.171875 67.332031 C 22.144531 66.90625 21.140625 66.429688 20.15625 65.90625 C 19.175781 65.378906 18.222656 64.808594 17.296875 64.191406 C 16.371094 63.570312 15.476562 62.910156 14.617188 62.203125 C 13.753906 61.496094 12.929688 60.75 12.144531 59.960938 C 11.355469 59.175781 10.609375 58.351562 9.902344 57.488281 C 9.195312 56.628906 8.535156 55.734375 7.914062 54.808594 C 7.296875 53.882812 6.726562 52.929688 6.199219 51.949219 C 5.675781 50.964844 5.199219 49.960938 4.773438 48.929688 C 4.347656 47.902344 3.972656 46.855469 3.648438 45.789062 C 3.324219 44.722656 3.054688 43.644531 2.839844 42.554688 C 2.621094 41.460938 2.457031 40.359375 2.347656 39.253906 C 2.238281 38.144531 2.183594 37.035156 2.183594 35.921875 C 2.183594 34.808594 2.238281 33.695312 2.347656 32.589844 C 2.457031 31.480469 2.621094 30.378906 2.839844 29.289062 C 3.054688 28.195312 3.324219 27.117188 3.648438 26.050781 C 3.972656 24.984375 4.347656 23.9375 4.773438 22.910156 C 5.199219 21.878906 5.675781 20.875 6.199219 19.894531 C 6.726562 18.910156 7.296875 17.957031 7.914062 17.03125 C 8.535156 16.105469 9.195312 15.210938 9.902344 14.351562 C 10.609375 13.492188 11.355469 12.667969 12.144531 11.878906 C 12.929688 11.09375 13.753906 10.34375 14.617188 9.640625 C 15.476562 8.933594 16.371094 8.269531 17.296875 7.652344 C 18.222656 7.03125 19.175781 6.460938 20.15625 5.9375 C 21.140625 5.410156 22.144531 4.933594 23.171875 4.507812 C 24.203125 4.082031 25.25 3.707031 26.316406 3.386719 C 27.378906 3.0625 28.460938 2.792969 29.550781 2.574219 C 30.644531 2.355469 31.742188 2.195312 32.851562 2.085938 C 33.960938 1.976562 35.070312 1.921875 36.183594 1.921875 C 37.296875 1.921875 38.410156 1.976562 39.515625 2.085938 C 40.625 2.195312 41.726562 2.355469 42.816406 2.574219 C 43.910156 2.792969 44.988281 3.0625 46.054688 3.386719 C 47.121094 3.707031 48.167969 4.082031 49.195312 4.507812 C 50.222656 4.933594 51.230469 5.410156 52.210938 5.9375 C 53.195312 6.460938 54.148438 7.03125 55.074219 7.652344 C 56 8.269531 56.890625 8.933594 57.753906 9.640625 C 58.613281 10.34375 59.4375 11.09375 60.226562 11.878906 C 61.011719 12.667969 61.761719 13.492188 62.464844 14.351562 C 63.171875 15.210938 63.835938 16.105469 64.453125 17.03125 C 65.074219 17.957031 65.644531 18.910156 66.167969 19.894531 C 66.695312 20.875 67.167969 21.878906 67.59375 22.910156 C 68.023438 23.9375 68.394531 24.984375 68.71875 26.050781 C 69.042969 27.117188 69.3125 28.195312 69.53125 29.289062 C 69.746094 30.378906 69.910156 31.480469 70.019531 32.589844 C 70.128906 33.695312 70.183594 34.808594 70.183594 35.921875 Z M 70.183594 35.921875 " fill-opacity="1" fill-rule="nonzero"/></g><g clip-path="url(#454872178d)"><path fill="#f5f5f5" d="M 36.164062 70.648438 C 16.96875 70.648438 1.417969 54.988281 1.417969 35.902344 C 1.417969 16.8125 16.96875 1.15625 36.164062 1.15625 C 55.359375 1.15625 70.910156 16.703125 70.910156 35.902344 C 70.910156 55.097656 55.253906 70.648438 36.164062 70.648438 Z M 36.164062 3.300781 C 18.148438 3.300781 3.5625 17.882812 3.5625 35.902344 C 3.5625 53.917969 18.148438 68.503906 36.164062 68.503906 C 54.179688 68.503906 68.765625 53.917969 68.765625 35.902344 C 68.765625 17.882812 54.074219 3.300781 36.164062 3.300781 Z M 36.164062 3.300781 " fill-opacity="1" fill-rule="nonzero"/></g><g clip-path="url(#e1ba00a59f)"><path fill="#f5f5f5" d="M 35.960938 70.816406 C 16.558594 70.816406 0.839844 54.992188 0.839844 35.699219 C 0.839844 16.402344 16.558594 0.578125 35.960938 0.578125 C 55.363281 0.578125 71.082031 16.292969 71.082031 35.699219 C 71.082031 55.101562 55.253906 70.816406 35.960938 70.816406 Z M 35.960938 2.746094 C 17.75 2.746094 3.007812 17.488281 3.007812 35.699219 C 3.007812 53.90625 17.75 68.648438 35.960938 68.648438 C 54.171875 68.648438 68.914062 53.90625 68.914062 35.699219 C 68.914062 17.488281 54.0625 2.746094 35.960938 2.746094 Z M 35.960938 2.746094 " fill-opacity="1" fill-rule="nonzero"/></g><g fill="#f5f5f5" fill-opacity="1"><g transform="translate(12.503053, 53.09829)"><g><path d="M 27.78125 -26.53125 L 27.78125 0 L 23.796875 0 L 5.078125 -24.109375 L 5.078125 0 L 3.703125 0 L 3.703125 -26.53125 L 7.6875 -26.53125 L 26.40625 -2.421875 L 26.40625 -26.53125 Z M 27.78125 -26.53125 "/></g></g></g><g fill="#f5f5f5" fill-opacity="1"><g transform="translate(30.842014, 48.811598)"><g><path d="M 29.0625 -25.359375 L 16.78125 -25.359375 L 16.78125 0 L 13.265625 0 L 13.265625 -25.359375 L 0.96875 -25.359375 L 0.96875 -26.53125 L 29.0625 -26.53125 Z M 29.0625 -25.359375 "/></g></g></g><g fill="#f5f5f5" fill-opacity="1"><g transform="translate(30.842014, 47.879982)"><g><path d="M 29.0625 -25.359375 L 16.78125 -25.359375 L 16.78125 0 L 13.265625 0 L 13.265625 -25.359375 L 0.96875 -25.359375 L 0.96875 -26.53125 L 29.0625 -26.53125 Z M 29.0625 -25.359375 "/></g></g></g><g fill="#f5f5f5" fill-opacity="1"><g transform="translate(11.848904, 53.09829)"><g><path d="M 27.78125 -26.53125 L 27.78125 0 L 23.796875 0 L 5.078125 -24.109375 L 5.078125 0 L 3.703125 0 L 3.703125 -26.53125 L 7.6875 -26.53125 L 26.40625 -2.421875 L 26.40625 -26.53125 Z M 27.78125 -26.53125 "/></g></g></g></svg>