<svg xmlns="http://www.w3.org/2000/svg" xmlns:xlink="http://www.w3.org/1999/xlink" width="179" zoomAndPan="magnify" viewBox="0 0 134.25 30.000001" height="40" preserveAspectRatio="xMidYMid meet" version="1.0"><defs><g/><clipPath id="b04ace47f3"><path d="M 4.367188 0.554688 L 32.675781 0.554688 L 32.675781 28.859375 L 4.367188 28.859375 Z M 4.367188 0.554688 " clip-rule="nonzero"/></clipPath></defs><g fill="#000000" fill-opacity="1"><g transform="translate(37.482118, 20.916823)"><g><path d="M 11.375 -10.859375 L 11.375 0 L 9.734375 0 L 2.078125 -9.875 L 2.078125 0 L 1.515625 0 L 1.515625 -10.859375 L 3.140625 -10.859375 L 10.8125 -0.984375 L 10.8125 -10.859375 Z M 11.375 -10.859375 "/></g></g></g><g fill="#000000" fill-opacity="1"><g transform="translate(50.371031, 20.916823)"><g><path d="M 2.953125 -10.375 L 2.953125 -5.703125 L 10 -5.703125 L 10 -5.21875 L 2.953125 -5.21875 L 2.953125 -0.484375 L 10.796875 -0.484375 L 10.796875 0 L 1.515625 0 L 1.515625 -10.859375 L 10.796875 -10.859375 L 10.796875 -10.375 Z M 2.953125 -10.375 "/></g></g></g><g fill="#000000" fill-opacity="1"><g transform="translate(62.39749, 20.916823)"><g><path d="M 9.59375 0 L 5.46875 -4.90625 L 1.578125 0 L 0.265625 0 L 5.203125 -5.203125 L 0.4375 -10.859375 L 2.234375 -10.859375 L 6.1875 -6.203125 L 9.765625 -10.859375 L 11.078125 -10.859375 L 6.4375 -5.890625 L 11.40625 0 Z M 9.59375 0 "/></g></g></g><g fill="#000000" fill-opacity="1"><g transform="translate(74.072578, 20.916823)"><g><path d="M 11.890625 -10.375 L 6.859375 -10.375 L 6.859375 0 L 5.421875 0 L 5.421875 -10.375 L 0.40625 -10.375 L 0.40625 -10.859375 L 11.890625 -10.859375 Z M 11.890625 -10.375 "/></g></g></g><g fill="#000000" fill-opacity="1"><g transform="translate(86.370548, 20.916823)"><g><path d="M 2.71875 -10.859375 L 2.71875 -9.265625 L 1.28125 -9.265625 L 1.28125 -10.859375 Z M 1.359375 -7.984375 L 2.640625 -7.984375 L 2.640625 0 L 1.359375 0 Z M 1.359375 -7.984375 "/></g></g></g><g fill="#000000" fill-opacity="1"><g transform="translate(90.363393, 20.916823)"><g><path d="M 4.15625 -6.828125 C 3.21875 -6.804688 2.5 -6.550781 2 -6.0625 C 1.507812 -5.570312 1.265625 -4.921875 1.265625 -4.109375 C 1.265625 -3.078125 1.585938 -2.328125 2.234375 -1.859375 C 2.890625 -1.390625 3.75 -1.15625 4.8125 -1.15625 C 6.019531 -1.15625 7.125 -1.457031 8.125 -2.0625 L 8.125 -0.65625 C 7.039062 -0.113281 5.8125 0.15625 4.4375 0.15625 C 3.351562 0.15625 2.472656 -0.144531 1.796875 -0.75 C 1.117188 -1.351562 0.78125 -2.226562 0.78125 -3.375 C 0.78125 -4.21875 0.945312 -5.003906 1.28125 -5.734375 C 1.625 -6.460938 2.113281 -7.046875 2.75 -7.484375 C 3.382812 -7.921875 4.125 -8.140625 4.96875 -8.140625 C 5.582031 -8.140625 6.113281 -8.082031 6.5625 -7.96875 C 7.007812 -7.851562 7.476562 -7.648438 7.96875 -7.359375 L 7.96875 -5.875 C 7.425781 -6.25 6.84375 -6.503906 6.21875 -6.640625 C 5.601562 -6.785156 4.914062 -6.847656 4.15625 -6.828125 Z M 4.15625 -6.828125 "/></g></g></g><g fill="#000000" fill-opacity="1"><g transform="translate(99.578885, 20.916823)"><g><path d="M 7.484375 0 L 4.359375 -3.96875 C 3.828125 -3.644531 3.253906 -3.316406 2.640625 -2.984375 L 2.640625 0 L 1.359375 0 L 1.359375 -11.171875 L 2.640625 -11.171875 L 2.640625 -3.34375 C 3.546875 -3.914062 4.351562 -4.582031 5.0625 -5.34375 C 5.78125 -6.113281 6.453125 -6.992188 7.078125 -7.984375 L 8.8125 -7.984375 C 7.988281 -6.835938 6.851562 -5.738281 5.40625 -4.6875 L 9.140625 0 Z M 7.484375 0 "/></g></g></g><g fill="#000000" fill-opacity="1"><g transform="translate(109.193656, 20.916823)"><g><path d="M 1.390625 -3.1875 C 1.753906 -1.832031 2.875 -1.15625 4.75 -1.15625 C 6.019531 -1.15625 7.144531 -1.457031 8.125 -2.0625 L 8.125 -0.65625 C 7.65625 -0.394531 7.101562 -0.191406 6.46875 -0.046875 C 5.84375 0.0859375 5.164062 0.15625 4.4375 0.15625 C 3.738281 0.15625 3.109375 0.015625 2.546875 -0.265625 C 1.992188 -0.554688 1.5625 -0.976562 1.25 -1.53125 C 0.9375 -2.09375 0.78125 -2.757812 0.78125 -3.53125 C 0.78125 -4.332031 0.945312 -5.082031 1.28125 -5.78125 C 1.625 -6.488281 2.113281 -7.054688 2.75 -7.484375 C 3.394531 -7.921875 4.132812 -8.140625 4.96875 -8.140625 C 5.675781 -8.140625 6.304688 -7.988281 6.859375 -7.6875 C 7.421875 -7.382812 7.851562 -6.953125 8.15625 -6.390625 C 8.457031 -5.828125 8.609375 -5.15625 8.609375 -4.375 C 8.609375 -3.945312 8.566406 -3.550781 8.484375 -3.1875 Z M 4.15625 -6.828125 C 3.21875 -6.828125 2.5 -6.601562 2 -6.15625 C 1.507812 -5.707031 1.265625 -5.09375 1.265625 -4.3125 L 7.328125 -4.3125 L 7.328125 -4.375 C 7.328125 -6.007812 6.269531 -6.828125 4.15625 -6.828125 Z M 4.15625 -6.828125 "/></g></g></g><g fill="#000000" fill-opacity="1"><g transform="translate(118.712605, 20.916823)"><g><path d="M 4.25 -1.078125 C 4.707031 -1.078125 5.195312 -1.160156 5.71875 -1.328125 L 5.71875 -0.09375 C 5.125 0.0703125 4.484375 0.15625 3.796875 0.15625 C 2.835938 0.15625 2.160156 -0.113281 1.765625 -0.65625 C 1.378906 -1.195312 1.1875 -2 1.1875 -3.0625 C 1.1875 -4.289062 1.597656 -5.554688 2.421875 -6.859375 L 0.078125 -6.859375 L 0.078125 -7.109375 C 0.847656 -7.242188 1.398438 -7.554688 1.734375 -8.046875 C 2.066406 -8.546875 2.296875 -9.269531 2.421875 -10.21875 L 2.65625 -10.21875 L 2.65625 -7.984375 L 5.875 -7.984375 L 5.875 -6.859375 L 2.65625 -6.859375 C 2.519531 -5.835938 2.453125 -4.65625 2.453125 -3.3125 C 2.453125 -2.769531 2.5 -2.34375 2.59375 -2.03125 C 2.695312 -1.71875 2.875 -1.476562 3.125 -1.3125 C 3.382812 -1.15625 3.757812 -1.078125 4.25 -1.078125 Z M 4.25 -1.078125 "/></g></g></g><g fill="#000000" fill-opacity="1"><g transform="translate(7.262179, 22.020379)"><g><path d="M 13.046875 -12.46875 L 13.046875 0 L 11.1875 0 L 2.375 -11.328125 L 2.375 0 L 1.734375 0 L 1.734375 -12.46875 L 3.609375 -12.46875 L 12.40625 -1.140625 L 12.40625 -12.46875 Z M 13.046875 -12.46875 "/></g></g></g><g fill="#000000" fill-opacity="1"><g transform="translate(15.225364, 20.443537)"><g><path d="M 13.65625 -11.90625 L 7.875 -11.90625 L 7.875 0 L 6.234375 0 L 6.234375 -11.90625 L 0.453125 -11.90625 L 0.453125 -12.46875 L 13.65625 -12.46875 Z M 13.65625 -11.90625 "/></g></g></g><g clip-path="url(#b04ace47f3)"><path fill="#000000" d="M 18.523438 28.859375 C 10.703125 28.859375 4.367188 22.484375 4.367188 14.707031 C 4.367188 6.933594 10.703125 0.554688 18.523438 0.554688 C 26.339844 0.554688 32.675781 6.886719 32.675781 14.707031 C 32.675781 22.527344 26.296875 28.859375 18.523438 28.859375 Z M 18.523438 1.429688 C 11.183594 1.429688 5.242188 7.367188 5.242188 14.707031 C 5.242188 22.046875 11.183594 27.988281 18.523438 27.988281 C 25.859375 27.988281 31.800781 22.046875 31.800781 14.707031 C 31.800781 7.367188 25.816406 1.429688 18.523438 1.429688 Z M 18.523438 1.429688 " fill-opacity="1" fill-rule="nonzero"/></g></svg>