<svg xmlns="http://www.w3.org/2000/svg" xmlns:xlink="http://www.w3.org/1999/xlink" width="49" zoomAndPan="magnify" viewBox="0 0 36.75 31.5" height="42" preserveAspectRatio="xMidYMid meet" version="1.0"><defs><g/><clipPath id="e2f258d292"><path d="M 3.351562 0.21875 L 33.828125 0.21875 L 33.828125 30.695312 L 3.351562 30.695312 Z M 3.351562 0.21875 " clip-rule="nonzero"/></clipPath></defs><g fill="#000000" fill-opacity="1"><g transform="translate(6.479434, 23.416061)"><g><path d="M 14.09375 -13.46875 L 14.09375 0 L 12.078125 0 L 2.578125 -12.234375 L 2.578125 0 L 1.875 0 L 1.875 -13.46875 L 3.90625 -13.46875 L 13.40625 -1.234375 L 13.40625 -13.46875 Z M 14.09375 -13.46875 "/></g></g></g><g fill="#000000" fill-opacity="1"><g transform="translate(15.084791, 21.712058)"><g><path d="M 14.75 -12.875 L 8.515625 -12.875 L 8.515625 0 L 6.734375 0 L 6.734375 -12.875 L 0.5 -12.875 L 0.5 -13.46875 L 14.75 -13.46875 Z M 14.75 -12.875 "/></g></g></g><g clip-path="url(#e2f258d292)"><path fill="#000000" d="M 18.589844 30.695312 C 10.171875 30.695312 3.351562 23.828125 3.351562 15.457031 C 3.351562 7.085938 10.171875 0.21875 18.589844 0.21875 C 27.007812 0.21875 33.828125 7.039062 33.828125 15.457031 C 33.828125 23.875 26.960938 30.695312 18.589844 30.695312 Z M 18.589844 1.160156 C 10.6875 1.160156 4.292969 7.554688 4.292969 15.457031 C 4.292969 23.359375 10.6875 29.753906 18.589844 29.753906 C 26.492188 29.753906 32.886719 23.359375 32.886719 15.457031 C 32.886719 7.554688 26.445312 1.160156 18.589844 1.160156 Z M 18.589844 1.160156 " fill-opacity="1" fill-rule="nonzero"/></g></svg>