<svg xmlns="http://www.w3.org/2000/svg" xmlns:xlink="http://www.w3.org/1999/xlink" width="211" zoomAndPan="magnify" viewBox="0 0 158.25 29.25" height="39" preserveAspectRatio="xMidYMid meet" version="1.0"><defs><g/><clipPath id="e9214743d7"><path d="M 3.890625 0.1875 L 32.410156 0.1875 L 32.410156 28.519531 L 3.890625 28.519531 Z M 3.890625 0.1875 " clip-rule="nonzero"/></clipPath></defs><g fill="#ffffff" fill-opacity="1"><g transform="translate(37.208843, 20.532012)"><g><path d="M 10.953125 -10.453125 L 10.953125 0 L 9.375 0 L 2 -9.5 L 2 0 L 1.453125 0 L 1.453125 -10.453125 L 3.03125 -10.453125 L 10.40625 -0.953125 L 10.40625 -10.453125 Z M 10.953125 -10.453125 "/></g></g></g><g fill="#ffffff" fill-opacity="1"><g transform="translate(49.609982, 20.532012)"><g><path d="M 2.84375 -10 L 2.84375 -5.484375 L 9.625 -5.484375 L 9.625 -5.03125 L 2.84375 -5.03125 L 2.84375 -0.46875 L 10.390625 -0.46875 L 10.390625 0 L 1.453125 0 L 1.453125 -10.453125 L 10.390625 -10.453125 L 10.390625 -10 Z M 2.84375 -10 "/></g></g></g><g fill="#ffffff" fill-opacity="1"><g transform="translate(61.181304, 20.532012)"><g><path d="M 9.234375 0 L 5.265625 -4.71875 L 1.515625 0 L 0.265625 0 L 5.015625 -5.015625 L 0.421875 -10.453125 L 2.15625 -10.453125 L 5.953125 -5.96875 L 9.40625 -10.453125 L 10.671875 -10.453125 L 6.203125 -5.671875 L 10.984375 0 Z M 9.234375 0 "/></g></g></g><g fill="#ffffff" fill-opacity="1"><g transform="translate(72.414553, 20.532012)"><g><path d="M 11.453125 -10 L 6.609375 -10 L 6.609375 0 L 5.234375 0 L 5.234375 -10 L 0.390625 -10 L 0.390625 -10.453125 L 11.453125 -10.453125 Z M 11.453125 -10 "/></g></g></g><g fill="#ffffff" fill-opacity="1"><g transform="translate(84.94088, 20.378325)"><g><path d="M 2.09375 -8.359375 L 2.09375 -7.125 L 0.984375 -7.125 L 0.984375 -8.359375 Z M 1.046875 -6.15625 L 2.03125 -6.15625 L 2.03125 0 L 1.046875 0 Z M 1.046875 -6.15625 "/></g></g></g><g fill="#ffffff" fill-opacity="1"><g transform="translate(91.825212, 20.378325)"><g><path d="M 3.203125 -5.265625 C 2.472656 -5.242188 1.914062 -5.046875 1.53125 -4.671875 C 1.15625 -4.296875 0.96875 -3.789062 0.96875 -3.15625 C 0.96875 -2.363281 1.21875 -1.785156 1.71875 -1.421875 C 2.226562 -1.066406 2.890625 -0.890625 3.703125 -0.890625 C 4.640625 -0.890625 5.492188 -1.125 6.265625 -1.59375 L 6.265625 -0.5 C 5.421875 -0.0820312 4.472656 0.125 3.421875 0.125 C 2.585938 0.125 1.910156 -0.109375 1.390625 -0.578125 C 0.867188 -1.046875 0.609375 -1.71875 0.609375 -2.59375 C 0.609375 -3.25 0.738281 -3.859375 1 -4.421875 C 1.257812 -4.984375 1.632812 -5.429688 2.125 -5.765625 C 2.613281 -6.097656 3.179688 -6.265625 3.828125 -6.265625 C 4.296875 -6.265625 4.703125 -6.21875 5.046875 -6.125 C 5.398438 -6.039062 5.765625 -5.890625 6.140625 -5.671875 L 6.140625 -4.53125 C 5.722656 -4.8125 5.273438 -5.003906 4.796875 -5.109375 C 4.316406 -5.222656 3.785156 -5.273438 3.203125 -5.265625 Z M 3.203125 -5.265625 "/></g></g></g><g fill="#ffffff" fill-opacity="1"><g transform="translate(102.728955, 20.378325)"><g><path d="M 5.765625 0 L 3.359375 -3.0625 C 2.953125 -2.8125 2.507812 -2.554688 2.03125 -2.296875 L 2.03125 0 L 1.046875 0 L 1.046875 -8.609375 L 2.03125 -8.609375 L 2.03125 -2.5625 C 2.726562 -3.007812 3.351562 -3.523438 3.90625 -4.109375 C 4.457031 -4.703125 4.972656 -5.382812 5.453125 -6.15625 L 6.78125 -6.15625 C 6.15625 -5.269531 5.285156 -4.421875 4.171875 -3.609375 L 7.03125 0 Z M 5.765625 0 "/></g></g></g><g fill="#ffffff" fill-opacity="1"><g transform="translate(113.939988, 20.378325)"><g><path d="M 1.0625 -2.453125 C 1.34375 -1.410156 2.207031 -0.890625 3.65625 -0.890625 C 4.632812 -0.890625 5.503906 -1.125 6.265625 -1.59375 L 6.265625 -0.5 C 5.898438 -0.300781 5.472656 -0.144531 4.984375 -0.03125 C 4.492188 0.0703125 3.972656 0.125 3.421875 0.125 C 2.878906 0.125 2.394531 0.015625 1.96875 -0.203125 C 1.539062 -0.429688 1.207031 -0.757812 0.96875 -1.1875 C 0.726562 -1.613281 0.609375 -2.125 0.609375 -2.71875 C 0.609375 -3.332031 0.738281 -3.910156 1 -4.453125 C 1.257812 -5.003906 1.632812 -5.441406 2.125 -5.765625 C 2.613281 -6.097656 3.179688 -6.265625 3.828125 -6.265625 C 4.367188 -6.265625 4.851562 -6.148438 5.28125 -5.921875 C 5.707031 -5.691406 6.035156 -5.359375 6.265625 -4.921875 C 6.503906 -4.484375 6.625 -3.96875 6.625 -3.375 C 6.625 -3.039062 6.59375 -2.734375 6.53125 -2.453125 Z M 3.203125 -5.265625 C 2.472656 -5.265625 1.914062 -5.085938 1.53125 -4.734375 C 1.15625 -4.390625 0.96875 -3.914062 0.96875 -3.3125 L 5.640625 -3.3125 L 5.640625 -3.375 C 5.640625 -4.632812 4.828125 -5.265625 3.203125 -5.265625 Z M 3.203125 -5.265625 "/></g></g></g><g fill="#ffffff" fill-opacity="1"><g transform="translate(125.077271, 20.378325)"><g><path d="M 3.265625 -0.84375 C 3.617188 -0.84375 4 -0.898438 4.40625 -1.015625 L 4.40625 -0.078125 C 3.945312 0.0546875 3.453125 0.125 2.921875 0.125 C 2.179688 0.125 1.660156 -0.0820312 1.359375 -0.5 C 1.054688 -0.914062 0.90625 -1.535156 0.90625 -2.359375 C 0.90625 -3.304688 1.226562 -4.28125 1.875 -5.28125 L 0.0625 -5.28125 L 0.0625 -5.46875 C 0.65625 -5.570312 1.078125 -5.816406 1.328125 -6.203125 C 1.585938 -6.585938 1.769531 -7.144531 1.875 -7.875 L 2.046875 -7.875 L 2.046875 -6.15625 L 4.53125 -6.15625 L 4.53125 -5.28125 L 2.046875 -5.28125 C 1.941406 -4.5 1.890625 -3.585938 1.890625 -2.546875 C 1.890625 -2.140625 1.925781 -1.8125 2 -1.5625 C 2.070312 -1.320312 2.207031 -1.140625 2.40625 -1.015625 C 2.601562 -0.898438 2.890625 -0.84375 3.265625 -0.84375 Z M 3.265625 -0.84375 "/></g></g></g><g fill="#ffffff" fill-opacity="1"><g transform="translate(6.78676, 21.672842)"><g><path d="M 13.0625 -12.46875 L 13.0625 0 L 11.1875 0 L 2.390625 -11.34375 L 2.390625 0 L 1.75 0 L 1.75 -12.46875 L 3.609375 -12.46875 L 12.421875 -1.140625 L 12.421875 -12.46875 Z M 13.0625 -12.46875 "/></g></g></g><g fill="#ffffff" fill-opacity="1"><g transform="translate(14.757384, 20.094528)"><g><path d="M 13.671875 -11.921875 L 7.890625 -11.921875 L 7.890625 0 L 6.234375 0 L 6.234375 -11.921875 L 0.453125 -11.921875 L 0.453125 -12.46875 L 13.671875 -12.46875 Z M 13.671875 -11.921875 "/></g></g></g><g clip-path="url(#e9214743d7)"><path fill="#ffffff" d="M 18.148438 28.707031 C 10.273438 28.707031 3.890625 22.28125 3.890625 14.445312 C 3.890625 6.613281 10.273438 0.1875 18.148438 0.1875 C 26.027344 0.1875 32.410156 6.566406 32.410156 14.445312 C 32.410156 22.324219 25.984375 28.707031 18.148438 28.707031 Z M 18.148438 1.066406 C 10.757812 1.066406 4.769531 7.050781 4.769531 14.445312 C 4.769531 21.839844 10.757812 27.824219 18.148438 27.824219 C 25.542969 27.824219 31.527344 21.839844 31.527344 14.445312 C 31.527344 7.050781 25.5 1.066406 18.148438 1.066406 Z M 18.148438 1.066406 " fill-opacity="1" fill-rule="nonzero"/></g></svg>