<svg xmlns="http://www.w3.org/2000/svg" xmlns:xlink="http://www.w3.org/1999/xlink" width="171" zoomAndPan="magnify" viewBox="0 0 128.25 20.25" height="27" preserveAspectRatio="xMidYMid meet" version="1.0"><defs><g/></defs><g fill="#ffffff" fill-opacity="1"><g transform="translate(27.268108, 16.194257)"><g><path d="M 11.34375 -10.828125 L 11.34375 0 L 9.71875 0 L 2.0625 -9.84375 L 2.0625 0 L 1.515625 0 L 1.515625 -10.828125 L 3.140625 -10.828125 L 10.78125 -0.984375 L 10.78125 -10.828125 Z M 11.34375 -10.828125 "/></g></g></g><g fill="#ffffff" fill-opacity="1"><g transform="translate(40.110988, 16.194257)"><g><path d="M 2.953125 -10.34375 L 2.953125 -5.6875 L 9.96875 -5.6875 L 9.96875 -5.203125 L 2.953125 -5.203125 L 2.953125 -0.484375 L 10.765625 -0.484375 L 10.765625 0 L 1.515625 0 L 1.515625 -10.828125 L 10.765625 -10.828125 L 10.765625 -10.34375 Z M 2.953125 -10.34375 "/></g></g></g><g fill="#ffffff" fill-opacity="1"><g transform="translate(52.094495, 16.194257)"><g><path d="M 9.5625 0 L 5.4375 -4.890625 L 1.578125 0 L 0.265625 0 L 5.1875 -5.1875 L 0.4375 -10.828125 L 2.234375 -10.828125 L 6.15625 -6.171875 L 9.75 -10.828125 L 11.046875 -10.828125 L 6.421875 -5.875 L 11.375 0 Z M 9.5625 0 "/></g></g></g><g fill="#ffffff" fill-opacity="1"><g transform="translate(63.727885, 16.194257)"><g><path d="M 11.859375 -10.34375 L 6.84375 -10.34375 L 6.84375 0 L 5.40625 0 L 5.40625 -10.34375 L 0.390625 -10.34375 L 0.390625 -10.828125 L 11.859375 -10.828125 Z M 11.859375 -10.34375 "/></g></g></g><g fill="#ffffff" fill-opacity="1"><g transform="translate(75.95585, 16.194257)"><g><path d="M 2.703125 -10.828125 L 2.703125 -9.234375 L 1.28125 -9.234375 L 1.28125 -10.828125 Z M 1.359375 -7.953125 L 2.625 -7.953125 L 2.625 0 L 1.359375 0 Z M 1.359375 -7.953125 "/></g></g></g><g fill="#ffffff" fill-opacity="1"><g transform="translate(79.934435, 16.194257)"><g><path d="M 4.140625 -6.8125 C 3.203125 -6.789062 2.488281 -6.535156 2 -6.046875 C 1.507812 -5.554688 1.265625 -4.90625 1.265625 -4.09375 C 1.265625 -3.0625 1.585938 -2.3125 2.234375 -1.84375 C 2.890625 -1.375 3.742188 -1.140625 4.796875 -1.140625 C 6.003906 -1.140625 7.109375 -1.441406 8.109375 -2.046875 L 8.109375 -0.65625 C 7.023438 -0.113281 5.796875 0.15625 4.421875 0.15625 C 3.335938 0.15625 2.457031 -0.144531 1.78125 -0.75 C 1.113281 -1.351562 0.78125 -2.222656 0.78125 -3.359375 C 0.78125 -4.210938 0.945312 -5 1.28125 -5.71875 C 1.625 -6.445312 2.109375 -7.03125 2.734375 -7.46875 C 3.367188 -7.90625 4.109375 -8.125 4.953125 -8.125 C 5.566406 -8.125 6.097656 -8.0625 6.546875 -7.9375 C 6.992188 -7.820312 7.457031 -7.625 7.9375 -7.34375 L 7.9375 -5.859375 C 7.40625 -6.234375 6.828125 -6.488281 6.203125 -6.625 C 5.585938 -6.769531 4.898438 -6.832031 4.140625 -6.8125 Z M 4.140625 -6.8125 "/></g></g></g><g fill="#ffffff" fill-opacity="1"><g transform="translate(89.117014, 16.194257)"><g><path d="M 7.46875 0 L 4.34375 -3.96875 C 3.8125 -3.632812 3.238281 -3.304688 2.625 -2.984375 L 2.625 0 L 1.359375 0 L 1.359375 -11.140625 L 2.625 -11.140625 L 2.625 -3.328125 C 3.53125 -3.898438 4.335938 -4.566406 5.046875 -5.328125 C 5.765625 -6.097656 6.429688 -6.972656 7.046875 -7.953125 L 8.78125 -7.953125 C 7.96875 -6.804688 6.835938 -5.71875 5.390625 -4.6875 L 9.109375 0 Z M 7.46875 0 "/></g></g></g><g fill="#ffffff" fill-opacity="1"><g transform="translate(98.69745, 16.194257)"><g><path d="M 1.390625 -3.1875 C 1.742188 -1.820312 2.859375 -1.140625 4.734375 -1.140625 C 6.003906 -1.140625 7.128906 -1.441406 8.109375 -2.046875 L 8.109375 -0.65625 C 7.640625 -0.394531 7.085938 -0.191406 6.453125 -0.046875 C 5.828125 0.0859375 5.148438 0.15625 4.421875 0.15625 C 3.722656 0.15625 3.097656 0.015625 2.546875 -0.265625 C 1.992188 -0.554688 1.5625 -0.976562 1.25 -1.53125 C 0.9375 -2.09375 0.78125 -2.753906 0.78125 -3.515625 C 0.78125 -4.316406 0.945312 -5.066406 1.28125 -5.765625 C 1.625 -6.472656 2.113281 -7.039062 2.75 -7.46875 C 3.382812 -7.90625 4.117188 -8.125 4.953125 -8.125 C 5.660156 -8.125 6.289062 -7.972656 6.84375 -7.671875 C 7.394531 -7.367188 7.820312 -6.9375 8.125 -6.375 C 8.425781 -5.8125 8.578125 -5.140625 8.578125 -4.359375 C 8.578125 -3.929688 8.535156 -3.539062 8.453125 -3.1875 Z M 4.140625 -6.8125 C 3.203125 -6.8125 2.488281 -6.585938 2 -6.140625 C 1.507812 -5.691406 1.265625 -5.078125 1.265625 -4.296875 L 7.3125 -4.296875 L 7.3125 -4.359375 C 7.3125 -5.992188 6.253906 -6.8125 4.140625 -6.8125 Z M 4.140625 -6.8125 "/></g></g></g><g fill="#ffffff" fill-opacity="1"><g transform="translate(108.182402, 16.194257)"><g><path d="M 4.234375 -1.078125 C 4.691406 -1.078125 5.179688 -1.160156 5.703125 -1.328125 L 5.703125 -0.09375 C 5.109375 0.0703125 4.472656 0.15625 3.796875 0.15625 C 2.835938 0.15625 2.160156 -0.113281 1.765625 -0.65625 C 1.367188 -1.195312 1.171875 -2 1.171875 -3.0625 C 1.171875 -4.28125 1.585938 -5.539062 2.421875 -6.84375 L 0.078125 -6.84375 L 0.078125 -7.078125 C 0.835938 -7.222656 1.382812 -7.539062 1.71875 -8.03125 C 2.0625 -8.519531 2.296875 -9.238281 2.421875 -10.1875 L 2.640625 -10.1875 L 2.640625 -7.953125 L 5.859375 -7.953125 L 5.859375 -6.84375 L 2.640625 -6.84375 C 2.515625 -5.820312 2.453125 -4.640625 2.453125 -3.296875 C 2.453125 -2.765625 2.5 -2.34375 2.59375 -2.03125 C 2.6875 -1.71875 2.859375 -1.476562 3.109375 -1.3125 C 3.367188 -1.15625 3.742188 -1.078125 4.234375 -1.078125 Z M 4.234375 -1.078125 "/></g></g></g></svg>