<svg xmlns="http://www.w3.org/2000/svg" xmlns:xlink="http://www.w3.org/1999/xlink" width="131" zoomAndPan="magnify" viewBox="0 0 98.25 111.749997" height="149" preserveAspectRatio="xMidYMid meet" version="1.0"><defs><g/><clipPath id="c921a3a4dc"><path d="M 1 0.539062 L 97 0.539062 L 97 110.566406 L 1 110.566406 Z M 1 0.539062 " clip-rule="nonzero"/></clipPath></defs><g clip-path="url(#c921a3a4dc)"><path fill="#000000" d="M 95.90625 27.605469 L 49.9375 0.933594 C 49.347656 0.539062 48.5625 0.539062 47.972656 0.933594 L 2 27.605469 C 1.414062 28 1.019531 28.585938 1.019531 29.371094 L 1.019531 82.324219 C 1.019531 83.109375 1.414062 83.699219 2 84.089844 L 47.972656 110.566406 C 48.363281 110.566406 48.5625 110.566406 48.953125 110.566406 C 49.347656 110.566406 49.542969 110.566406 49.9375 110.371094 L 95.90625 83.894531 C 96.496094 83.503906 96.890625 82.914062 96.890625 82.128906 L 96.890625 29.175781 C 96.890625 28.585938 96.496094 27.800781 95.90625 27.605469 Z M 92.960938 80.953125 L 48.953125 106.253906 L 4.949219 80.953125 L 4.949219 30.351562 L 48.953125 5.050781 L 92.960938 30.351562 Z M 92.960938 80.953125 " fill-opacity="1" fill-rule="nonzero"/></g><g fill="#000000" fill-opacity="1"><g transform="translate(25.852426, 75.882046)"><g><path d="M 48.609375 -42.40625 L 28.0625 -42.40625 L 28.0625 0 L 22.1875 0 L 22.1875 -42.40625 L 1.625 -42.40625 L 1.625 -44.375 L 48.609375 -44.375 Z M 48.609375 -42.40625 "/></g></g></g><g fill="#000000" fill-opacity="1"><g transform="translate(2.324794, 75.893514)"><g><path d="M 43.375 -41.421875 L 43.375 0 L 37.15625 0 L 7.921875 -37.65625 L 7.921875 0 L 5.78125 0 L 5.78125 -41.421875 L 12 -41.421875 L 41.25 -3.78125 L 41.25 -41.421875 Z M 43.375 -41.421875 "/></g></g></g><g fill="#000000" fill-opacity="1"><g transform="translate(25.822596, 51.049372)"><g><path d="M 1.25 -2.890625 C 1.582031 -1.660156 2.597656 -1.046875 4.296875 -1.046875 C 5.453125 -1.046875 6.472656 -1.316406 7.359375 -1.859375 L 7.359375 -0.59375 C 6.929688 -0.363281 6.429688 -0.179688 5.859375 -0.046875 C 5.285156 0.078125 4.671875 0.140625 4.015625 0.140625 C 3.378906 0.140625 2.8125 0.0078125 2.3125 -0.25 C 1.8125 -0.507812 1.414062 -0.890625 1.125 -1.390625 C 0.84375 -1.898438 0.703125 -2.5 0.703125 -3.1875 C 0.703125 -3.914062 0.859375 -4.597656 1.171875 -5.234375 C 1.484375 -5.878906 1.925781 -6.394531 2.5 -6.78125 C 3.082031 -7.175781 3.75 -7.375 4.5 -7.375 C 5.144531 -7.375 5.71875 -7.234375 6.21875 -6.953125 C 6.71875 -6.679688 7.101562 -6.289062 7.375 -5.78125 C 7.65625 -5.269531 7.796875 -4.660156 7.796875 -3.953125 C 7.796875 -3.566406 7.753906 -3.210938 7.671875 -2.890625 Z M 3.765625 -6.1875 C 2.910156 -6.1875 2.257812 -5.976562 1.8125 -5.5625 C 1.363281 -5.15625 1.140625 -4.601562 1.140625 -3.90625 L 6.640625 -3.90625 L 6.640625 -3.953125 C 6.640625 -5.441406 5.679688 -6.1875 3.765625 -6.1875 Z M 3.765625 -6.1875 "/></g></g></g><g fill="#000000" fill-opacity="1"><g transform="translate(34.435083, 51.049372)"><g><path d="M 6.46875 0 L 3.6875 -3.359375 C 3.257812 -2.953125 2.910156 -2.46875 2.640625 -1.90625 C 2.378906 -1.34375 2.140625 -0.707031 1.921875 0 L 0.296875 0 C 0.648438 -0.707031 1.082031 -1.335938 1.59375 -1.890625 C 2.113281 -2.453125 2.769531 -2.988281 3.5625 -3.5 L 0.4375 -7.234375 L 1.984375 -7.234375 L 4.578125 -4.09375 C 5.003906 -4.53125 5.347656 -5.019531 5.609375 -5.5625 C 5.878906 -6.113281 6.078125 -6.671875 6.203125 -7.234375 L 7.8125 -7.234375 C 7.519531 -6.671875 7.078125 -6.082031 6.484375 -5.46875 C 5.898438 -4.851562 5.3125 -4.347656 4.71875 -3.953125 L 8.015625 0 Z M 6.46875 0 "/></g></g></g><g fill="#000000" fill-opacity="1"><g transform="translate(54.797234, 75.860981)"><g><path d="M 2.453125 -9.796875 L 2.453125 -8.359375 L 1.15625 -8.359375 L 1.15625 -9.796875 Z M 1.21875 -7.203125 L 2.375 -7.203125 L 2.375 0 L 1.21875 0 Z M 1.21875 -7.203125 "/></g></g></g><g fill="#000000" fill-opacity="1"><g transform="translate(58.397379, 75.860981)"><g><path d="M 3.75 -6.171875 C 2.90625 -6.148438 2.257812 -5.914062 1.8125 -5.46875 C 1.363281 -5.03125 1.140625 -4.441406 1.140625 -3.703125 C 1.140625 -2.773438 1.429688 -2.097656 2.015625 -1.671875 C 2.609375 -1.242188 3.382812 -1.03125 4.34375 -1.03125 C 5.4375 -1.03125 6.429688 -1.304688 7.328125 -1.859375 L 7.328125 -0.59375 C 6.347656 -0.101562 5.238281 0.140625 4 0.140625 C 3.019531 0.140625 2.222656 -0.128906 1.609375 -0.671875 C 1.003906 -1.222656 0.703125 -2.015625 0.703125 -3.046875 C 0.703125 -3.804688 0.851562 -4.515625 1.15625 -5.171875 C 1.46875 -5.835938 1.910156 -6.363281 2.484375 -6.75 C 3.054688 -7.144531 3.722656 -7.34375 4.484375 -7.34375 C 5.035156 -7.34375 5.515625 -7.289062 5.921875 -7.1875 C 6.328125 -7.082031 6.75 -6.898438 7.1875 -6.640625 L 7.1875 -5.296875 C 6.695312 -5.640625 6.171875 -5.875 5.609375 -6 C 5.054688 -6.125 4.4375 -6.179688 3.75 -6.171875 Z M 3.75 -6.171875 "/></g></g></g><g fill="#000000" fill-opacity="1"><g transform="translate(66.70651, 75.860981)"><g><path d="M 6.75 0 L 3.9375 -3.59375 C 3.457031 -3.289062 2.9375 -2.988281 2.375 -2.6875 L 2.375 0 L 1.21875 0 L 1.21875 -10.078125 L 2.375 -10.078125 L 2.375 -3.015625 C 3.1875 -3.523438 3.914062 -4.125 4.5625 -4.8125 C 5.21875 -5.507812 5.820312 -6.304688 6.375 -7.203125 L 7.953125 -7.203125 C 7.210938 -6.160156 6.191406 -5.171875 4.890625 -4.234375 L 8.234375 0 Z M 6.75 0 "/></g></g></g><g fill="#000000" fill-opacity="1"><g transform="translate(75.375653, 75.860981)"><g><path d="M 1.25 -2.875 C 1.582031 -1.644531 2.59375 -1.03125 4.28125 -1.03125 C 5.425781 -1.03125 6.441406 -1.304688 7.328125 -1.859375 L 7.328125 -0.59375 C 6.910156 -0.363281 6.414062 -0.179688 5.84375 -0.046875 C 5.269531 0.078125 4.65625 0.140625 4 0.140625 C 3.363281 0.140625 2.796875 0.0078125 2.296875 -0.25 C 1.804688 -0.507812 1.414062 -0.890625 1.125 -1.390625 C 0.84375 -1.890625 0.703125 -2.488281 0.703125 -3.1875 C 0.703125 -3.90625 0.851562 -4.582031 1.15625 -5.21875 C 1.46875 -5.863281 1.910156 -6.378906 2.484375 -6.765625 C 3.066406 -7.148438 3.734375 -7.34375 4.484375 -7.34375 C 5.128906 -7.34375 5.695312 -7.207031 6.1875 -6.9375 C 6.6875 -6.664062 7.070312 -6.273438 7.34375 -5.765625 C 7.625 -5.253906 7.765625 -4.648438 7.765625 -3.953125 C 7.765625 -3.566406 7.726562 -3.207031 7.65625 -2.875 Z M 3.75 -6.171875 C 2.90625 -6.171875 2.257812 -5.960938 1.8125 -5.546875 C 1.363281 -5.140625 1.140625 -4.585938 1.140625 -3.890625 L 6.609375 -3.890625 L 6.609375 -3.953125 C 6.609375 -5.429688 5.65625 -6.171875 3.75 -6.171875 Z M 3.75 -6.171875 "/></g></g></g><g fill="#000000" fill-opacity="1"><g transform="translate(83.958393, 75.860981)"><g><path d="M 3.828125 -0.984375 C 4.242188 -0.984375 4.6875 -1.054688 5.15625 -1.203125 L 5.15625 -0.09375 C 4.613281 0.0625 4.035156 0.140625 3.421875 0.140625 C 2.554688 0.140625 1.945312 -0.101562 1.59375 -0.59375 C 1.238281 -1.082031 1.0625 -1.804688 1.0625 -2.765625 C 1.0625 -3.867188 1.4375 -5.007812 2.1875 -6.1875 L 0.078125 -6.1875 L 0.078125 -6.40625 C 0.765625 -6.53125 1.257812 -6.816406 1.5625 -7.265625 C 1.863281 -7.710938 2.070312 -8.363281 2.1875 -9.21875 L 2.390625 -9.21875 L 2.390625 -7.203125 L 5.296875 -7.203125 L 5.296875 -6.1875 L 2.390625 -6.1875 C 2.273438 -5.269531 2.21875 -4.203125 2.21875 -2.984375 C 2.21875 -2.503906 2.257812 -2.117188 2.34375 -1.828125 C 2.4375 -1.546875 2.597656 -1.332031 2.828125 -1.1875 C 3.054688 -1.050781 3.390625 -0.984375 3.828125 -0.984375 Z M 3.828125 -0.984375 "/></g></g></g></svg>