<svg xmlns="http://www.w3.org/2000/svg" xmlns:xlink="http://www.w3.org/1999/xlink" width="392" zoomAndPan="magnify" viewBox="0 0 294 61.499998" height="82" preserveAspectRatio="xMidYMid meet" version="1.0"><defs><g/><clipPath id="7301f827f6"><path d="M 2.453125 0.5 L 61.96875 0.5 L 61.96875 60.015625 L 2.453125 60.015625 Z M 2.453125 0.5 " clip-rule="nonzero"/></clipPath><clipPath id="57c1f30466"><path d="M 1.957031 0 L 62.960938 0 L 62.960938 61.003906 L 1.957031 61.003906 Z M 1.957031 0 " clip-rule="nonzero"/></clipPath></defs><g clip-path="url(#7301f827f6)"><path fill="#c8ae3f" d="M 32.210938 60.015625 C 15.773438 60.015625 2.453125 46.605469 2.453125 30.257812 C 2.453125 13.90625 15.773438 0.5 32.210938 0.5 C 48.652344 0.5 61.96875 13.816406 61.96875 30.257812 C 61.96875 46.695312 48.5625 60.015625 32.210938 60.015625 Z M 32.210938 2.335938 C 16.78125 2.335938 4.292969 14.824219 4.292969 30.257812 C 4.292969 45.6875 16.78125 58.175781 32.210938 58.175781 C 47.640625 58.175781 60.132812 45.6875 60.132812 30.257812 C 60.132812 14.824219 47.550781 2.335938 32.210938 2.335938 Z M 32.210938 2.335938 " fill-opacity="1" fill-rule="nonzero"/></g><g clip-path="url(#57c1f30466)"><path fill="#c8ae3f" d="M 32.457031 61.003906 C 15.605469 61.003906 1.957031 47.257812 1.957031 30.503906 C 1.957031 13.746094 15.605469 0 32.457031 0 C 49.308594 0 62.960938 13.652344 62.960938 30.503906 C 62.960938 47.351562 49.214844 61.003906 32.457031 61.003906 Z M 32.457031 1.882812 C 16.640625 1.882812 3.839844 14.6875 3.839844 30.503906 C 3.839844 46.316406 16.640625 59.121094 32.457031 59.121094 C 48.273438 59.121094 61.078125 46.316406 61.078125 30.503906 C 61.078125 14.6875 48.179688 1.882812 32.457031 1.882812 Z M 32.457031 1.882812 " fill-opacity="1" fill-rule="nonzero"/></g><g fill="#c8ae3f" fill-opacity="1"><g transform="translate(11.416045, 45.826033)"><g><path d="M 23.96875 -22.890625 L 23.96875 0 L 20.546875 0 L 4.375 -20.8125 L 4.375 0 L 3.203125 0 L 3.203125 -22.890625 L 6.640625 -22.890625 L 22.796875 -2.09375 L 22.796875 -22.890625 Z M 23.96875 -22.890625 "/></g></g></g><g fill="#c8ae3f" fill-opacity="1"><g transform="translate(27.243334, 42.12644)"><g><path d="M 25.078125 -21.890625 L 14.484375 -21.890625 L 14.484375 0 L 11.453125 0 L 11.453125 -21.890625 L 0.84375 -21.890625 L 0.84375 -22.890625 L 25.078125 -22.890625 Z M 25.078125 -21.890625 "/></g></g></g><g fill="#c8ae3f" fill-opacity="1"><g transform="translate(27.243334, 41.322417)"><g><path d="M 25.078125 -21.890625 L 14.484375 -21.890625 L 14.484375 0 L 11.453125 0 L 11.453125 -21.890625 L 0.84375 -21.890625 L 0.84375 -22.890625 L 25.078125 -22.890625 Z M 25.078125 -21.890625 "/></g></g></g><g fill="#c8ae3f" fill-opacity="1"><g transform="translate(10.851487, 45.826033)"><g><path d="M 23.96875 -22.890625 L 23.96875 0 L 20.546875 0 L 4.375 -20.8125 L 4.375 0 L 3.203125 0 L 3.203125 -22.890625 L 6.640625 -22.890625 L 22.796875 -2.09375 L 22.796875 -22.890625 Z M 23.96875 -22.890625 "/></g></g></g><g fill="#c8ae3f" fill-opacity="1"><g transform="translate(69.927761, 41.74103)"><g><path d="M 20.5625 -19.640625 L 20.5625 0 L 17.609375 0 L 3.75 -17.84375 L 3.75 0 L 2.75 0 L 2.75 -19.640625 L 5.6875 -19.640625 L 19.546875 -1.796875 L 19.546875 -19.640625 Z M 20.5625 -19.640625 "/></g></g></g><g fill="#c8ae3f" fill-opacity="1"><g transform="translate(93.232371, 41.74103)"><g><path d="M 5.34375 -18.765625 L 5.34375 -10.3125 L 18.078125 -10.3125 L 18.078125 -9.4375 L 5.34375 -9.4375 L 5.34375 -0.859375 L 19.515625 -0.859375 L 19.515625 0 L 2.75 0 L 2.75 -19.640625 L 19.515625 -19.640625 L 19.515625 -18.765625 Z M 5.34375 -18.765625 "/></g></g></g><g fill="#c8ae3f" fill-opacity="1"><g transform="translate(114.977563, 41.74103)"><g><path d="M 17.359375 0 L 9.875 -8.859375 L 2.859375 0 L 0.484375 0 L 9.40625 -9.40625 L 0.78125 -19.640625 L 4.046875 -19.640625 L 11.171875 -11.203125 L 17.671875 -19.640625 L 20.046875 -19.640625 L 11.640625 -10.65625 L 20.609375 0 Z M 17.359375 0 "/></g></g></g><g fill="#c8ae3f" fill-opacity="1"><g transform="translate(136.087437, 41.74103)"><g><path d="M 21.515625 -18.765625 L 12.421875 -18.765625 L 12.421875 0 L 9.8125 0 L 9.8125 -18.765625 L 0.71875 -18.765625 L 0.71875 -19.640625 L 21.515625 -19.640625 Z M 21.515625 -18.765625 "/></g></g></g><g fill="#c8ae3f" fill-opacity="1"><g transform="translate(159.627305, 41.452216)"><g><path d="M 3.921875 -15.703125 L 3.921875 -13.390625 L 1.84375 -13.390625 L 1.84375 -15.703125 Z M 1.96875 -11.546875 L 3.8125 -11.546875 L 3.8125 0 L 1.96875 0 Z M 1.96875 -11.546875 "/></g></g></g><g fill="#c8ae3f" fill-opacity="1"><g transform="translate(172.564557, 41.452216)"><g><path d="M 6 -9.890625 C 4.644531 -9.859375 3.609375 -9.488281 2.890625 -8.78125 C 2.179688 -8.070312 1.828125 -7.125 1.828125 -5.9375 C 1.828125 -4.4375 2.300781 -3.347656 3.25 -2.671875 C 4.195312 -1.992188 5.429688 -1.65625 6.953125 -1.65625 C 8.703125 -1.65625 10.300781 -2.097656 11.75 -2.984375 L 11.75 -0.953125 C 10.1875 -0.160156 8.410156 0.234375 6.421875 0.234375 C 4.847656 0.234375 3.570312 -0.203125 2.59375 -1.078125 C 1.613281 -1.960938 1.125 -3.226562 1.125 -4.875 C 1.125 -6.101562 1.367188 -7.242188 1.859375 -8.296875 C 2.359375 -9.359375 3.066406 -10.203125 3.984375 -10.828125 C 4.898438 -11.460938 5.96875 -11.78125 7.1875 -11.78125 C 8.070312 -11.78125 8.835938 -11.691406 9.484375 -11.515625 C 10.140625 -11.347656 10.820312 -11.054688 11.53125 -10.640625 L 11.53125 -8.5 C 10.738281 -9.039062 9.894531 -9.414062 9 -9.625 C 8.113281 -9.832031 7.113281 -9.921875 6 -9.890625 Z M 6 -9.890625 "/></g></g></g><g fill="#c8ae3f" fill-opacity="1"><g transform="translate(193.055213, 41.452216)"><g><path d="M 10.828125 0 L 6.296875 -5.75 C 5.535156 -5.269531 4.707031 -4.789062 3.8125 -4.3125 L 3.8125 0 L 1.96875 0 L 1.96875 -16.171875 L 3.8125 -16.171875 L 3.8125 -4.828125 C 5.113281 -5.660156 6.285156 -6.628906 7.328125 -7.734375 C 8.367188 -8.847656 9.335938 -10.117188 10.234375 -11.546875 L 12.75 -11.546875 C 11.5625 -9.878906 9.921875 -8.296875 7.828125 -6.796875 L 13.203125 0 Z M 10.828125 0 "/></g></g></g><g fill="#c8ae3f" fill-opacity="1"><g transform="translate(214.123339, 41.452216)"><g><path d="M 2.015625 -4.625 C 2.535156 -2.644531 4.148438 -1.65625 6.859375 -1.65625 C 8.703125 -1.65625 10.332031 -2.097656 11.75 -2.984375 L 11.75 -0.953125 C 11.070312 -0.578125 10.273438 -0.285156 9.359375 -0.078125 C 8.441406 0.128906 7.460938 0.234375 6.421875 0.234375 C 5.398438 0.234375 4.488281 0.0234375 3.6875 -0.390625 C 2.894531 -0.804688 2.269531 -1.414062 1.8125 -2.21875 C 1.351562 -3.03125 1.125 -3.992188 1.125 -5.109375 C 1.125 -6.253906 1.367188 -7.335938 1.859375 -8.359375 C 2.359375 -9.390625 3.066406 -10.21875 3.984375 -10.84375 C 4.910156 -11.46875 5.976562 -11.78125 7.1875 -11.78125 C 8.21875 -11.78125 9.128906 -11.5625 9.921875 -11.125 C 10.722656 -10.6875 11.34375 -10.054688 11.78125 -9.234375 C 12.226562 -8.421875 12.453125 -7.453125 12.453125 -6.328125 C 12.453125 -5.710938 12.390625 -5.144531 12.265625 -4.625 Z M 6 -9.890625 C 4.644531 -9.890625 3.609375 -9.5625 2.890625 -8.90625 C 2.179688 -8.25 1.828125 -7.359375 1.828125 -6.234375 L 10.59375 -6.234375 L 10.59375 -6.328125 C 10.59375 -8.703125 9.0625 -9.890625 6 -9.890625 Z M 6 -9.890625 "/></g></g></g><g fill="#c8ae3f" fill-opacity="1"><g transform="translate(235.052871, 41.452216)"><g><path d="M 6.140625 -1.578125 C 6.804688 -1.578125 7.515625 -1.691406 8.265625 -1.921875 L 8.265625 -0.140625 C 7.398438 0.109375 6.476562 0.234375 5.5 0.234375 C 4.113281 0.234375 3.132812 -0.15625 2.5625 -0.9375 C 1.988281 -1.726562 1.703125 -2.894531 1.703125 -4.4375 C 1.703125 -6.207031 2.304688 -8.039062 3.515625 -9.9375 L 0.109375 -9.9375 L 0.109375 -10.28125 C 1.222656 -10.476562 2.019531 -10.929688 2.5 -11.640625 C 2.988281 -12.359375 3.328125 -13.40625 3.515625 -14.78125 L 3.828125 -14.78125 L 3.828125 -11.546875 L 8.5 -11.546875 L 8.5 -9.9375 L 3.828125 -9.9375 C 3.648438 -8.457031 3.5625 -6.738281 3.5625 -4.78125 C 3.5625 -4.007812 3.628906 -3.394531 3.765625 -2.9375 C 3.898438 -2.488281 4.148438 -2.148438 4.515625 -1.921875 C 4.890625 -1.691406 5.429688 -1.578125 6.140625 -1.578125 Z M 6.140625 -1.578125 "/></g></g></g><g fill="#c8ae3f" fill-opacity="1"><g transform="translate(70.671712, 41.74103)"><g><path d="M 20.5625 -19.640625 L 20.5625 0 L 17.609375 0 L 3.75 -17.84375 L 3.75 0 L 2.75 0 L 2.75 -19.640625 L 5.6875 -19.640625 L 19.546875 -1.796875 L 19.546875 -19.640625 Z M 20.5625 -19.640625 "/></g></g></g><g fill="#c8ae3f" fill-opacity="1"><g transform="translate(93.976322, 41.74103)"><g><path d="M 5.34375 -18.765625 L 5.34375 -10.3125 L 18.078125 -10.3125 L 18.078125 -9.4375 L 5.34375 -9.4375 L 5.34375 -0.859375 L 19.515625 -0.859375 L 19.515625 0 L 2.75 0 L 2.75 -19.640625 L 19.515625 -19.640625 L 19.515625 -18.765625 Z M 5.34375 -18.765625 "/></g></g></g><g fill="#c8ae3f" fill-opacity="1"><g transform="translate(115.721515, 41.74103)"><g><path d="M 17.359375 0 L 9.875 -8.859375 L 2.859375 0 L 0.484375 0 L 9.40625 -9.40625 L 0.78125 -19.640625 L 4.046875 -19.640625 L 11.171875 -11.203125 L 17.671875 -19.640625 L 20.046875 -19.640625 L 11.640625 -10.65625 L 20.609375 0 Z M 17.359375 0 "/></g></g></g><g fill="#c8ae3f" fill-opacity="1"><g transform="translate(136.831389, 41.74103)"><g><path d="M 21.515625 -18.765625 L 12.421875 -18.765625 L 12.421875 0 L 9.8125 0 L 9.8125 -18.765625 L 0.71875 -18.765625 L 0.71875 -19.640625 L 21.515625 -19.640625 Z M 21.515625 -18.765625 "/></g></g></g><g fill="#c8ae3f" fill-opacity="1"><g transform="translate(159.627305, 41.184982)"><g><path d="M 3.921875 -15.703125 L 3.921875 -13.390625 L 1.84375 -13.390625 L 1.84375 -15.703125 Z M 1.96875 -11.546875 L 3.8125 -11.546875 L 3.8125 0 L 1.96875 0 Z M 1.96875 -11.546875 "/></g></g></g><g fill="#c8ae3f" fill-opacity="1"><g transform="translate(172.564557, 41.184982)"><g><path d="M 6 -9.890625 C 4.644531 -9.859375 3.609375 -9.488281 2.890625 -8.78125 C 2.179688 -8.070312 1.828125 -7.125 1.828125 -5.9375 C 1.828125 -4.4375 2.300781 -3.347656 3.25 -2.671875 C 4.195312 -1.992188 5.429688 -1.65625 6.953125 -1.65625 C 8.703125 -1.65625 10.300781 -2.097656 11.75 -2.984375 L 11.75 -0.953125 C 10.1875 -0.160156 8.410156 0.234375 6.421875 0.234375 C 4.847656 0.234375 3.570312 -0.203125 2.59375 -1.078125 C 1.613281 -1.960938 1.125 -3.226562 1.125 -4.875 C 1.125 -6.101562 1.367188 -7.242188 1.859375 -8.296875 C 2.359375 -9.359375 3.066406 -10.203125 3.984375 -10.828125 C 4.898438 -11.460938 5.96875 -11.78125 7.1875 -11.78125 C 8.070312 -11.78125 8.835938 -11.691406 9.484375 -11.515625 C 10.140625 -11.347656 10.820312 -11.054688 11.53125 -10.640625 L 11.53125 -8.5 C 10.738281 -9.039062 9.894531 -9.414062 9 -9.625 C 8.113281 -9.832031 7.113281 -9.921875 6 -9.890625 Z M 6 -9.890625 "/></g></g></g><g fill="#c8ae3f" fill-opacity="1"><g transform="translate(193.055213, 41.184982)"><g><path d="M 10.828125 0 L 6.296875 -5.75 C 5.535156 -5.269531 4.707031 -4.789062 3.8125 -4.3125 L 3.8125 0 L 1.96875 0 L 1.96875 -16.171875 L 3.8125 -16.171875 L 3.8125 -4.828125 C 5.113281 -5.660156 6.285156 -6.628906 7.328125 -7.734375 C 8.367188 -8.847656 9.335938 -10.117188 10.234375 -11.546875 L 12.75 -11.546875 C 11.5625 -9.878906 9.921875 -8.296875 7.828125 -6.796875 L 13.203125 0 Z M 10.828125 0 "/></g></g></g><g fill="#c8ae3f" fill-opacity="1"><g transform="translate(214.123339, 41.184982)"><g><path d="M 2.015625 -4.625 C 2.535156 -2.644531 4.148438 -1.65625 6.859375 -1.65625 C 8.703125 -1.65625 10.332031 -2.097656 11.75 -2.984375 L 11.75 -0.953125 C 11.070312 -0.578125 10.273438 -0.285156 9.359375 -0.078125 C 8.441406 0.128906 7.460938 0.234375 6.421875 0.234375 C 5.398438 0.234375 4.488281 0.0234375 3.6875 -0.390625 C 2.894531 -0.804688 2.269531 -1.414062 1.8125 -2.21875 C 1.351562 -3.03125 1.125 -3.992188 1.125 -5.109375 C 1.125 -6.253906 1.367188 -7.335938 1.859375 -8.359375 C 2.359375 -9.390625 3.066406 -10.21875 3.984375 -10.84375 C 4.910156 -11.46875 5.976562 -11.78125 7.1875 -11.78125 C 8.21875 -11.78125 9.128906 -11.5625 9.921875 -11.125 C 10.722656 -10.6875 11.34375 -10.054688 11.78125 -9.234375 C 12.226562 -8.421875 12.453125 -7.453125 12.453125 -6.328125 C 12.453125 -5.710938 12.390625 -5.144531 12.265625 -4.625 Z M 6 -9.890625 C 4.644531 -9.890625 3.609375 -9.5625 2.890625 -8.90625 C 2.179688 -8.25 1.828125 -7.359375 1.828125 -6.234375 L 10.59375 -6.234375 L 10.59375 -6.328125 C 10.59375 -8.703125 9.0625 -9.890625 6 -9.890625 Z M 6 -9.890625 "/></g></g></g><g fill="#c8ae3f" fill-opacity="1"><g transform="translate(235.052871, 41.184982)"><g><path d="M 6.140625 -1.578125 C 6.804688 -1.578125 7.515625 -1.691406 8.265625 -1.921875 L 8.265625 -0.140625 C 7.398438 0.109375 6.476562 0.234375 5.5 0.234375 C 4.113281 0.234375 3.132812 -0.15625 2.5625 -0.9375 C 1.988281 -1.726562 1.703125 -2.894531 1.703125 -4.4375 C 1.703125 -6.207031 2.304688 -8.039062 3.515625 -9.9375 L 0.109375 -9.9375 L 0.109375 -10.28125 C 1.222656 -10.476562 2.019531 -10.929688 2.5 -11.640625 C 2.988281 -12.359375 3.328125 -13.40625 3.515625 -14.78125 L 3.828125 -14.78125 L 3.828125 -11.546875 L 8.5 -11.546875 L 8.5 -9.9375 L 3.828125 -9.9375 C 3.648438 -8.457031 3.5625 -6.738281 3.5625 -4.78125 C 3.5625 -4.007812 3.628906 -3.394531 3.765625 -2.9375 C 3.898438 -2.488281 4.148438 -2.148438 4.515625 -1.921875 C 4.890625 -1.691406 5.429688 -1.578125 6.140625 -1.578125 Z M 6.140625 -1.578125 "/></g></g></g></svg>