<svg xmlns="http://www.w3.org/2000/svg" xmlns:xlink="http://www.w3.org/1999/xlink" width="49" zoomAndPan="magnify" viewBox="0 0 36.75 31.5" height="42" preserveAspectRatio="xMidYMid meet" version="1.0"><defs><g/><clipPath id="dfaf9fde6c"><path d="M 3.152344 0.117188 L 34.371094 0.117188 L 34.371094 31.007812 L 3.152344 31.007812 Z M 3.152344 0.117188 " clip-rule="nonzero"/></clipPath><clipPath id="d71fefdd2a"><path d="M 3.351562 0.316406 L 33.828125 0.316406 L 33.828125 30.789062 L 3.351562 30.789062 Z M 3.351562 0.316406 " clip-rule="nonzero"/></clipPath></defs><g clip-path="url(#dfaf9fde6c)"><path fill="#000000" d="M 34.371094 15.726562 C 34.371094 16.238281 34.347656 16.746094 34.296875 17.257812 C 34.246094 17.765625 34.171875 18.269531 34.074219 18.773438 C 33.972656 19.273438 33.847656 19.769531 33.699219 20.257812 C 33.550781 20.746094 33.378906 21.226562 33.183594 21.699219 C 32.988281 22.171875 32.769531 22.632812 32.53125 23.085938 C 32.289062 23.535156 32.027344 23.972656 31.742188 24.398438 C 31.457031 24.824219 31.152344 25.234375 30.828125 25.628906 C 30.503906 26.023438 30.164062 26.402344 29.800781 26.765625 C 29.441406 27.125 29.0625 27.46875 28.667969 27.792969 C 28.269531 28.117188 27.859375 28.421875 27.4375 28.707031 C 27.011719 28.988281 26.574219 29.25 26.121094 29.492188 C 25.671875 29.734375 25.210938 29.953125 24.738281 30.148438 C 24.265625 30.34375 23.785156 30.515625 23.292969 30.664062 C 22.804688 30.8125 22.308594 30.9375 21.808594 31.035156 C 21.308594 31.136719 20.800781 31.210938 20.292969 31.261719 C 19.785156 31.3125 19.273438 31.335938 18.761719 31.335938 C 18.253906 31.335938 17.742188 31.3125 17.234375 31.261719 C 16.726562 31.210938 16.21875 31.136719 15.71875 31.035156 C 15.21875 30.9375 14.722656 30.8125 14.234375 30.664062 C 13.742188 30.515625 13.261719 30.34375 12.789062 30.148438 C 12.316406 29.953125 11.855469 29.734375 11.40625 29.492188 C 10.953125 29.25 10.515625 28.988281 10.089844 28.707031 C 9.667969 28.421875 9.257812 28.117188 8.859375 27.792969 C 8.464844 27.46875 8.085938 27.125 7.726562 26.765625 C 7.363281 26.402344 7.023438 26.023438 6.699219 25.628906 C 6.375 25.234375 6.070312 24.824219 5.785156 24.398438 C 5.5 23.972656 5.238281 23.535156 4.996094 23.085938 C 4.757812 22.632812 4.539062 22.171875 4.34375 21.699219 C 4.148438 21.226562 3.976562 20.746094 3.828125 20.257812 C 3.679688 19.769531 3.554688 19.273438 3.453125 18.773438 C 3.355469 18.269531 3.28125 17.765625 3.230469 17.257812 C 3.179688 16.746094 3.152344 16.238281 3.152344 15.726562 C 3.152344 15.214844 3.179688 14.707031 3.230469 14.195312 C 3.28125 13.6875 3.355469 13.183594 3.453125 12.679688 C 3.554688 12.179688 3.679688 11.683594 3.828125 11.195312 C 3.976562 10.707031 4.148438 10.226562 4.34375 9.753906 C 4.539062 9.28125 4.757812 8.820312 4.996094 8.367188 C 5.238281 7.917969 5.5 7.480469 5.785156 7.054688 C 6.070312 6.628906 6.375 6.21875 6.699219 5.824219 C 7.023438 5.429688 7.363281 5.050781 7.726562 4.6875 C 8.085938 4.328125 8.464844 3.984375 8.859375 3.660156 C 9.257812 3.335938 9.667969 3.03125 10.089844 2.746094 C 10.515625 2.464844 10.953125 2.199219 11.40625 1.960938 C 11.855469 1.71875 12.316406 1.5 12.789062 1.304688 C 13.261719 1.109375 13.742188 0.9375 14.234375 0.789062 C 14.722656 0.640625 15.21875 0.515625 15.71875 0.417969 C 16.21875 0.316406 16.726562 0.242188 17.234375 0.191406 C 17.742188 0.140625 18.253906 0.117188 18.761719 0.117188 C 19.273438 0.117188 19.785156 0.140625 20.292969 0.191406 C 20.800781 0.242188 21.308594 0.316406 21.808594 0.417969 C 22.308594 0.515625 22.804688 0.640625 23.292969 0.789062 C 23.785156 0.9375 24.265625 1.109375 24.738281 1.304688 C 25.210938 1.5 25.671875 1.71875 26.121094 1.960938 C 26.574219 2.199219 27.011719 2.464844 27.4375 2.746094 C 27.859375 3.03125 28.269531 3.335938 28.667969 3.660156 C 29.0625 3.984375 29.441406 4.328125 29.800781 4.6875 C 30.164062 5.050781 30.503906 5.429688 30.828125 5.824219 C 31.152344 6.21875 31.457031 6.628906 31.742188 7.054688 C 32.027344 7.480469 32.289062 7.917969 32.53125 8.367188 C 32.769531 8.820312 32.988281 9.28125 33.183594 9.753906 C 33.378906 10.226562 33.550781 10.707031 33.699219 11.195312 C 33.847656 11.683594 33.972656 12.179688 34.074219 12.679688 C 34.171875 13.183594 34.246094 13.6875 34.296875 14.195312 C 34.347656 14.707031 34.371094 15.214844 34.371094 15.726562 Z M 34.371094 15.726562 " fill-opacity="1" fill-rule="nonzero"/></g><g fill="#ffffff" fill-opacity="1"><g transform="translate(6.479434, 23.512783)"><g><path d="M 14.09375 -13.46875 L 14.09375 0 L 12.078125 0 L 2.578125 -12.234375 L 2.578125 0 L 1.875 0 L 1.875 -13.46875 L 3.90625 -13.46875 L 13.40625 -1.234375 L 13.40625 -13.46875 Z M 14.09375 -13.46875 "/></g></g></g><g fill="#ffffff" fill-opacity="1"><g transform="translate(15.084791, 21.808781)"><g><path d="M 14.75 -12.875 L 8.515625 -12.875 L 8.515625 0 L 6.734375 0 L 6.734375 -12.875 L 0.5 -12.875 L 0.5 -13.46875 L 14.75 -13.46875 Z M 14.75 -12.875 "/></g></g></g><g clip-path="url(#d71fefdd2a)"><path fill="#ffffff" d="M 18.589844 30.789062 C 10.171875 30.789062 3.351562 23.925781 3.351562 15.554688 C 3.351562 7.183594 10.171875 0.316406 18.589844 0.316406 C 27.007812 0.316406 33.828125 7.136719 33.828125 15.554688 C 33.828125 23.972656 26.960938 30.789062 18.589844 30.789062 Z M 18.589844 1.257812 C 10.6875 1.257812 4.292969 7.652344 4.292969 15.554688 C 4.292969 23.453125 10.6875 29.851562 18.589844 29.851562 C 26.492188 29.851562 32.886719 23.453125 32.886719 15.554688 C 32.886719 7.652344 26.445312 1.257812 18.589844 1.257812 Z M 18.589844 1.257812 " fill-opacity="1" fill-rule="nonzero"/></g></svg>