<svg xmlns="http://www.w3.org/2000/svg" xmlns:xlink="http://www.w3.org/1999/xlink" width="98" zoomAndPan="magnify" viewBox="0 0 73.5 83.999999" height="112" preserveAspectRatio="xMidYMid meet" version="1.0"><defs><g/><clipPath id="618001bc35"><path d="M 0.523438 1 L 72.9375 1 L 72.9375 83.613281 L 0.523438 83.613281 Z M 0.523438 1 " clip-rule="nonzero"/></clipPath></defs><g clip-path="url(#618001bc35)"><path fill="#ffffff" d="M 71.984375 21.320312 L 37.46875 1.292969 C 37.027344 0.996094 36.433594 0.996094 35.992188 1.292969 L 1.476562 21.320312 C 1.03125 21.613281 0.738281 22.054688 0.738281 22.644531 L 0.738281 62.40625 C 0.738281 62.996094 1.03125 63.4375 1.476562 63.734375 L 35.992188 83.613281 C 36.289062 83.613281 36.433594 83.613281 36.730469 83.613281 C 37.027344 83.613281 37.171875 83.613281 37.46875 83.46875 L 71.984375 63.585938 C 72.429688 63.292969 72.722656 62.847656 72.722656 62.261719 L 72.722656 22.5 C 72.722656 22.054688 72.429688 21.46875 71.984375 21.320312 Z M 69.773438 61.375 L 36.730469 80.375 L 3.6875 61.375 L 3.6875 23.382812 L 36.730469 4.382812 L 69.773438 23.382812 Z M 69.773438 61.375 " fill-opacity="1" fill-rule="nonzero"/></g><g fill="#ffffff" fill-opacity="1"><g transform="translate(19.383819, 57.569192)"><g><path d="M 36.5 -31.84375 L 21.0625 -31.84375 L 21.0625 0 L 16.65625 0 L 16.65625 -31.84375 L 1.21875 -31.84375 L 1.21875 -33.3125 L 36.5 -33.3125 Z M 36.5 -31.84375 "/></g></g></g><g fill="#ffffff" fill-opacity="1"><g transform="translate(1.717374, 57.577808)"><g><path d="M 32.578125 -31.109375 L 32.578125 0 L 27.90625 0 L 5.953125 -28.28125 L 5.953125 0 L 4.34375 0 L 4.34375 -31.109375 L 9.015625 -31.109375 L 30.96875 -2.84375 L 30.96875 -31.109375 Z M 32.578125 -31.109375 "/></g></g></g><g fill="#ffffff" fill-opacity="1"><g transform="translate(19.361419, 38.922821)"><g><path d="M 0.9375 -2.171875 C 1.1875 -1.242188 1.945312 -0.78125 3.21875 -0.78125 C 4.082031 -0.78125 4.847656 -0.988281 5.515625 -1.40625 L 5.515625 -0.4375 C 5.203125 -0.269531 4.828125 -0.132812 4.390625 -0.03125 C 3.960938 0.0625 3.503906 0.109375 3.015625 0.109375 C 2.535156 0.109375 2.109375 0.0078125 1.734375 -0.1875 C 1.359375 -0.382812 1.0625 -0.671875 0.84375 -1.046875 C 0.632812 -1.421875 0.53125 -1.867188 0.53125 -2.390625 C 0.53125 -2.929688 0.644531 -3.441406 0.875 -3.921875 C 1.101562 -4.410156 1.4375 -4.800781 1.875 -5.09375 C 2.3125 -5.382812 2.8125 -5.53125 3.375 -5.53125 C 3.851562 -5.53125 4.28125 -5.425781 4.65625 -5.21875 C 5.039062 -5.007812 5.332031 -4.710938 5.53125 -4.328125 C 5.738281 -3.953125 5.84375 -3.5 5.84375 -2.96875 C 5.84375 -2.675781 5.816406 -2.410156 5.765625 -2.171875 Z M 2.8125 -4.640625 C 2.175781 -4.640625 1.691406 -4.484375 1.359375 -4.171875 C 1.023438 -3.867188 0.859375 -3.453125 0.859375 -2.921875 L 4.984375 -2.921875 L 4.984375 -2.96875 C 4.984375 -4.082031 4.257812 -4.640625 2.8125 -4.640625 Z M 2.8125 -4.640625 "/></g></g></g><g fill="#ffffff" fill-opacity="1"><g transform="translate(25.828368, 38.922821)"><g><path d="M 4.859375 0 L 2.765625 -2.515625 C 2.441406 -2.210938 2.179688 -1.847656 1.984375 -1.421875 C 1.785156 -1.003906 1.601562 -0.53125 1.4375 0 L 0.21875 0 C 0.488281 -0.53125 0.816406 -1.003906 1.203125 -1.421875 C 1.585938 -1.835938 2.078125 -2.238281 2.671875 -2.625 L 0.328125 -5.421875 L 1.484375 -5.421875 L 3.4375 -3.0625 C 3.757812 -3.394531 4.019531 -3.765625 4.21875 -4.171875 C 4.414062 -4.585938 4.5625 -5.003906 4.65625 -5.421875 L 5.859375 -5.421875 C 5.640625 -5.003906 5.304688 -4.566406 4.859375 -4.109375 C 4.421875 -3.648438 3.976562 -3.265625 3.53125 -2.953125 L 6.015625 0 Z M 4.859375 0 "/></g></g></g><g fill="#ffffff" fill-opacity="1"><g transform="translate(41.117916, 57.553377)"><g><path d="M 1.84375 -7.359375 L 1.84375 -6.265625 L 0.859375 -6.265625 L 0.859375 -7.359375 Z M 0.921875 -5.40625 L 1.78125 -5.40625 L 1.78125 0 L 0.921875 0 Z M 0.921875 -5.40625 "/></g></g></g><g fill="#ffffff" fill-opacity="1"><g transform="translate(43.821195, 57.553377)"><g><path d="M 2.8125 -4.625 C 2.175781 -4.613281 1.691406 -4.441406 1.359375 -4.109375 C 1.023438 -3.773438 0.859375 -3.332031 0.859375 -2.78125 C 0.859375 -2.082031 1.078125 -1.570312 1.515625 -1.25 C 1.960938 -0.9375 2.539062 -0.78125 3.25 -0.78125 C 4.070312 -0.78125 4.820312 -0.984375 5.5 -1.390625 L 5.5 -0.4375 C 4.769531 -0.0703125 3.9375 0.109375 3 0.109375 C 2.269531 0.109375 1.675781 -0.09375 1.21875 -0.5 C 0.757812 -0.914062 0.53125 -1.507812 0.53125 -2.28125 C 0.53125 -2.851562 0.644531 -3.382812 0.875 -3.875 C 1.101562 -4.375 1.429688 -4.769531 1.859375 -5.0625 C 2.296875 -5.363281 2.796875 -5.515625 3.359375 -5.515625 C 3.773438 -5.515625 4.132812 -5.472656 4.4375 -5.390625 C 4.738281 -5.316406 5.054688 -5.179688 5.390625 -4.984375 L 5.390625 -3.984375 C 5.023438 -4.234375 4.632812 -4.40625 4.21875 -4.5 C 3.800781 -4.601562 3.332031 -4.644531 2.8125 -4.625 Z M 2.8125 -4.625 "/></g></g></g><g fill="#ffffff" fill-opacity="1"><g transform="translate(50.060361, 57.553377)"><g><path d="M 5.078125 0 L 2.953125 -2.6875 C 2.585938 -2.46875 2.195312 -2.242188 1.78125 -2.015625 L 1.78125 0 L 0.921875 0 L 0.921875 -7.5625 L 1.78125 -7.5625 L 1.78125 -2.265625 C 2.394531 -2.648438 2.941406 -3.101562 3.421875 -3.625 C 3.910156 -4.144531 4.367188 -4.738281 4.796875 -5.40625 L 5.96875 -5.40625 C 5.414062 -4.625 4.648438 -3.878906 3.671875 -3.171875 L 6.1875 0 Z M 5.078125 0 "/></g></g></g><g fill="#ffffff" fill-opacity="1"><g transform="translate(56.569853, 57.553377)"><g><path d="M 0.9375 -2.15625 C 1.1875 -1.238281 1.945312 -0.78125 3.21875 -0.78125 C 4.082031 -0.78125 4.84375 -0.984375 5.5 -1.390625 L 5.5 -0.4375 C 5.1875 -0.269531 4.8125 -0.132812 4.375 -0.03125 C 3.945312 0.0625 3.488281 0.109375 3 0.109375 C 2.53125 0.109375 2.109375 0.015625 1.734375 -0.171875 C 1.359375 -0.367188 1.0625 -0.65625 0.84375 -1.03125 C 0.632812 -1.414062 0.53125 -1.867188 0.53125 -2.390625 C 0.53125 -2.929688 0.644531 -3.441406 0.875 -3.921875 C 1.101562 -4.398438 1.429688 -4.785156 1.859375 -5.078125 C 2.296875 -5.367188 2.796875 -5.515625 3.359375 -5.515625 C 3.847656 -5.515625 4.28125 -5.410156 4.65625 -5.203125 C 5.03125 -4.992188 5.316406 -4.695312 5.515625 -4.3125 C 5.722656 -3.9375 5.828125 -3.488281 5.828125 -2.96875 C 5.828125 -2.675781 5.796875 -2.40625 5.734375 -2.15625 Z M 2.8125 -4.625 C 2.175781 -4.625 1.691406 -4.46875 1.359375 -4.15625 C 1.023438 -3.851562 0.859375 -3.441406 0.859375 -2.921875 L 4.96875 -2.921875 L 4.96875 -2.96875 C 4.96875 -4.070312 4.25 -4.625 2.8125 -4.625 Z M 2.8125 -4.625 "/></g></g></g><g fill="#ffffff" fill-opacity="1"><g transform="translate(63.014467, 57.553377)"><g><path d="M 2.875 -0.734375 C 3.1875 -0.734375 3.519531 -0.785156 3.875 -0.890625 L 3.875 -0.0625 C 3.46875 0.0507812 3.035156 0.109375 2.578125 0.109375 C 1.921875 0.109375 1.457031 -0.0703125 1.1875 -0.4375 C 0.925781 -0.8125 0.796875 -1.359375 0.796875 -2.078125 C 0.796875 -2.898438 1.078125 -3.757812 1.640625 -4.65625 L 0.046875 -4.65625 L 0.046875 -4.8125 C 0.566406 -4.90625 0.941406 -5.117188 1.171875 -5.453125 C 1.398438 -5.785156 1.554688 -6.273438 1.640625 -6.921875 L 1.796875 -6.921875 L 1.796875 -5.40625 L 3.984375 -5.40625 L 3.984375 -4.65625 L 1.796875 -4.65625 C 1.710938 -3.957031 1.671875 -3.148438 1.671875 -2.234375 C 1.671875 -1.878906 1.703125 -1.59375 1.765625 -1.375 C 1.828125 -1.164062 1.941406 -1.003906 2.109375 -0.890625 C 2.285156 -0.785156 2.539062 -0.734375 2.875 -0.734375 Z M 2.875 -0.734375 "/></g></g></g></svg>