<svg xmlns="http://www.w3.org/2000/svg" xmlns:xlink="http://www.w3.org/1999/xlink" width="40" zoomAndPan="magnify" viewBox="0 0 30 34.499999" height="46" preserveAspectRatio="xMidYMid meet" version="1.0"><defs><g/><clipPath id="296c9b2fa8"><path d="M 0.730469 0.421875 L 29.5625 0.421875 L 29.5625 33.691406 L 0.730469 33.691406 Z M 0.730469 0.421875 " clip-rule="nonzero"/></clipPath><clipPath id="0291c26af6"><path d="M 1.640625 1.511719 L 28.996094 1.511719 L 28.996094 32.558594 L 1.640625 32.558594 Z M 1.640625 1.511719 " clip-rule="nonzero"/></clipPath></defs><g clip-path="url(#296c9b2fa8)"><path fill="#000000" d="M 29.558594 25.375 L 15.144531 33.691406 L 0.730469 25.375 L 0.730469 8.738281 L 15.144531 0.421875 L 29.558594 8.738281 Z M 29.558594 25.375 " fill-opacity="1" fill-rule="nonzero"/></g><g clip-path="url(#0291c26af6)"><path fill="#ffffff" d="M 28.632812 9.148438 L 15.597656 1.621094 C 15.429688 1.511719 15.207031 1.511719 15.039062 1.621094 L 2.003906 9.148438 C 1.835938 9.257812 1.726562 9.425781 1.726562 9.648438 L 1.726562 24.589844 C 1.726562 24.8125 1.835938 24.976562 2.003906 25.089844 L 15.039062 32.558594 C 15.152344 32.558594 15.207031 32.558594 15.320312 32.558594 C 15.429688 32.558594 15.484375 32.558594 15.597656 32.503906 L 28.632812 25.03125 C 28.800781 24.921875 28.910156 24.757812 28.910156 24.535156 L 28.910156 9.589844 C 28.910156 9.425781 28.800781 9.203125 28.632812 9.148438 Z M 27.796875 24.203125 L 15.320312 31.34375 L 2.839844 24.203125 L 2.839844 9.921875 L 15.320312 2.785156 L 27.796875 9.921875 Z M 27.796875 24.203125 " fill-opacity="1" fill-rule="nonzero"/></g><g fill="#ffffff" fill-opacity="1"><g transform="translate(8.696543, 22.672729)"><g><path d="M 13.65625 -11.90625 L 7.875 -11.90625 L 7.875 0 L 6.234375 0 L 6.234375 -11.90625 L 0.453125 -11.90625 L 0.453125 -12.46875 L 13.65625 -12.46875 Z M 13.65625 -11.90625 "/></g></g></g><g fill="#ffffff" fill-opacity="1"><g transform="translate(2.087963, 22.675951)"><g><path d="M 12.1875 -11.640625 L 12.1875 0 L 10.4375 0 L 2.21875 -10.578125 L 2.21875 0 L 1.625 0 L 1.625 -11.640625 L 3.375 -11.640625 L 11.578125 -1.0625 L 11.578125 -11.640625 Z M 12.1875 -11.640625 "/></g></g></g><g fill="#ffffff" fill-opacity="1"><g transform="translate(8.688163, 15.697581)"><g><path d="M 0.359375 -0.8125 C 0.441406 -0.46875 0.722656 -0.296875 1.203125 -0.296875 C 1.523438 -0.296875 1.8125 -0.375 2.0625 -0.53125 L 2.0625 -0.171875 C 1.945312 -0.0976562 1.804688 -0.0390625 1.640625 0 C 1.484375 0.03125 1.3125 0.046875 1.125 0.046875 C 0.945312 0.046875 0.785156 0.0078125 0.640625 -0.0625 C 0.503906 -0.132812 0.394531 -0.242188 0.3125 -0.390625 C 0.238281 -0.535156 0.203125 -0.703125 0.203125 -0.890625 C 0.203125 -1.097656 0.242188 -1.289062 0.328125 -1.46875 C 0.410156 -1.65625 0.535156 -1.800781 0.703125 -1.90625 C 0.867188 -2.019531 1.054688 -2.078125 1.265625 -2.078125 C 1.441406 -2.078125 1.597656 -2.035156 1.734375 -1.953125 C 1.878906 -1.878906 1.988281 -1.769531 2.0625 -1.625 C 2.144531 -1.476562 2.1875 -1.304688 2.1875 -1.109375 C 2.1875 -1.003906 2.175781 -0.90625 2.15625 -0.8125 Z M 1.0625 -1.734375 C 0.820312 -1.734375 0.640625 -1.675781 0.515625 -1.5625 C 0.390625 -1.445312 0.328125 -1.289062 0.328125 -1.09375 L 1.859375 -1.09375 L 1.859375 -1.109375 C 1.859375 -1.523438 1.59375 -1.734375 1.0625 -1.734375 Z M 1.0625 -1.734375 "/></g></g></g><g fill="#ffffff" fill-opacity="1"><g transform="translate(11.107289, 15.697581)"><g><path d="M 1.8125 0 L 1.03125 -0.9375 C 0.914062 -0.820312 0.820312 -0.6875 0.75 -0.53125 C 0.675781 -0.375 0.609375 -0.195312 0.546875 0 L 0.078125 0 C 0.179688 -0.195312 0.304688 -0.375 0.453125 -0.53125 C 0.597656 -0.6875 0.78125 -0.835938 1 -0.984375 L 0.125 -2.03125 L 0.5625 -2.03125 L 1.28125 -1.15625 C 1.40625 -1.28125 1.503906 -1.414062 1.578125 -1.5625 C 1.648438 -1.71875 1.707031 -1.875 1.75 -2.03125 L 2.1875 -2.03125 C 2.113281 -1.875 1.992188 -1.707031 1.828125 -1.53125 C 1.660156 -1.363281 1.492188 -1.222656 1.328125 -1.109375 L 2.25 0 Z M 1.8125 0 "/></g></g></g><g fill="#ffffff" fill-opacity="1"><g transform="translate(16.82673, 22.666811)"><g><path d="M 0.6875 -2.75 L 0.6875 -2.34375 L 0.328125 -2.34375 L 0.328125 -2.75 Z M 0.34375 -2.03125 L 0.671875 -2.03125 L 0.671875 0 L 0.34375 0 Z M 0.34375 -2.03125 "/></g></g></g><g fill="#ffffff" fill-opacity="1"><g transform="translate(17.83796, 22.666811)"><g><path d="M 1.046875 -1.734375 C 0.816406 -1.722656 0.632812 -1.65625 0.5 -1.53125 C 0.375 -1.414062 0.3125 -1.253906 0.3125 -1.046875 C 0.3125 -0.773438 0.394531 -0.582031 0.5625 -0.46875 C 0.726562 -0.351562 0.945312 -0.296875 1.21875 -0.296875 C 1.519531 -0.296875 1.800781 -0.367188 2.0625 -0.515625 L 2.0625 -0.171875 C 1.78125 -0.0234375 1.46875 0.046875 1.125 0.046875 C 0.851562 0.046875 0.628906 -0.03125 0.453125 -0.1875 C 0.285156 -0.34375 0.203125 -0.566406 0.203125 -0.859375 C 0.203125 -1.066406 0.242188 -1.265625 0.328125 -1.453125 C 0.410156 -1.640625 0.53125 -1.785156 0.6875 -1.890625 C 0.851562 -2.003906 1.046875 -2.0625 1.265625 -2.0625 C 1.421875 -2.0625 1.550781 -2.046875 1.65625 -2.015625 C 1.769531 -1.984375 1.890625 -1.929688 2.015625 -1.859375 L 2.015625 -1.484375 C 1.878906 -1.578125 1.734375 -1.640625 1.578125 -1.671875 C 1.421875 -1.710938 1.242188 -1.734375 1.046875 -1.734375 Z M 1.046875 -1.734375 "/></g></g></g><g fill="#ffffff" fill-opacity="1"><g transform="translate(20.171878, 22.666811)"><g><path d="M 1.890625 0 L 1.109375 -1 C 0.972656 -0.914062 0.828125 -0.832031 0.671875 -0.75 L 0.671875 0 L 0.34375 0 L 0.34375 -2.828125 L 0.671875 -2.828125 L 0.671875 -0.84375 C 0.898438 -0.988281 1.101562 -1.15625 1.28125 -1.34375 C 1.46875 -1.539062 1.640625 -1.769531 1.796875 -2.03125 L 2.234375 -2.03125 C 2.023438 -1.738281 1.738281 -1.457031 1.375 -1.1875 L 2.3125 0 Z M 1.890625 0 "/></g></g></g><g fill="#ffffff" fill-opacity="1"><g transform="translate(22.606917, 22.666811)"><g><path d="M 0.359375 -0.8125 C 0.441406 -0.46875 0.722656 -0.296875 1.203125 -0.296875 C 1.523438 -0.296875 1.8125 -0.367188 2.0625 -0.515625 L 2.0625 -0.171875 C 1.9375 -0.0976562 1.796875 -0.0390625 1.640625 0 C 1.484375 0.03125 1.3125 0.046875 1.125 0.046875 C 0.945312 0.046875 0.785156 0.0078125 0.640625 -0.0625 C 0.503906 -0.132812 0.394531 -0.242188 0.3125 -0.390625 C 0.238281 -0.535156 0.203125 -0.703125 0.203125 -0.890625 C 0.203125 -1.097656 0.242188 -1.289062 0.328125 -1.46875 C 0.410156 -1.644531 0.53125 -1.785156 0.6875 -1.890625 C 0.851562 -2.003906 1.046875 -2.0625 1.265625 -2.0625 C 1.441406 -2.0625 1.597656 -2.019531 1.734375 -1.9375 C 1.878906 -1.863281 1.988281 -1.753906 2.0625 -1.609375 C 2.144531 -1.472656 2.1875 -1.304688 2.1875 -1.109375 C 2.1875 -1.003906 2.175781 -0.90625 2.15625 -0.8125 Z M 1.046875 -1.734375 C 0.816406 -1.734375 0.632812 -1.675781 0.5 -1.5625 C 0.375 -1.445312 0.3125 -1.289062 0.3125 -1.09375 L 1.859375 -1.09375 L 1.859375 -1.109375 C 1.859375 -1.523438 1.585938 -1.734375 1.046875 -1.734375 Z M 1.046875 -1.734375 "/></g></g></g><g fill="#ffffff" fill-opacity="1"><g transform="translate(25.017688, 22.666811)"><g><path d="M 1.078125 -0.28125 C 1.191406 -0.28125 1.316406 -0.296875 1.453125 -0.328125 L 1.453125 -0.03125 C 1.296875 0.0195312 1.132812 0.046875 0.96875 0.046875 C 0.71875 0.046875 0.539062 -0.0195312 0.4375 -0.15625 C 0.34375 -0.300781 0.296875 -0.507812 0.296875 -0.78125 C 0.296875 -1.09375 0.398438 -1.410156 0.609375 -1.734375 L 0.015625 -1.734375 L 0.015625 -1.796875 C 0.210938 -1.835938 0.351562 -1.921875 0.4375 -2.046875 C 0.519531 -2.171875 0.578125 -2.351562 0.609375 -2.59375 L 0.671875 -2.59375 L 0.671875 -2.03125 L 1.484375 -2.03125 L 1.484375 -1.734375 L 0.671875 -1.734375 C 0.640625 -1.484375 0.625 -1.1875 0.625 -0.84375 C 0.625 -0.707031 0.632812 -0.597656 0.65625 -0.515625 C 0.6875 -0.429688 0.734375 -0.367188 0.796875 -0.328125 C 0.859375 -0.296875 0.953125 -0.28125 1.078125 -0.28125 Z M 1.078125 -0.28125 "/></g></g></g></svg>