<svg xmlns="http://www.w3.org/2000/svg" xmlns:xlink="http://www.w3.org/1999/xlink" width="211" zoomAndPan="magnify" viewBox="0 0 158.25 30.000001" height="40" preserveAspectRatio="xMidYMid meet" version="1.0"><defs><g/><clipPath id="332bd7703e"><path d="M 4.742188 0.628906 L 33.046875 0.628906 L 33.046875 28.933594 L 4.742188 28.933594 Z M 4.742188 0.628906 " clip-rule="nonzero"/></clipPath></defs><g fill="#000000" fill-opacity="1"><g transform="translate(37.811204, 20.820955)"><g><path d="M 10.859375 -10.375 L 10.859375 0 L 9.296875 0 L 1.984375 -9.421875 L 1.984375 0 L 1.453125 0 L 1.453125 -10.375 L 3 -10.375 L 10.328125 -0.953125 L 10.328125 -10.375 Z M 10.859375 -10.375 "/></g></g></g><g fill="#000000" fill-opacity="1"><g transform="translate(50.120027, 20.820955)"><g><path d="M 2.828125 -9.90625 L 2.828125 -5.4375 L 9.546875 -5.4375 L 9.546875 -4.984375 L 2.828125 -4.984375 L 2.828125 -0.453125 L 10.3125 -0.453125 L 10.3125 0 L 1.453125 0 L 1.453125 -10.375 L 10.3125 -10.375 L 10.3125 -9.90625 Z M 2.828125 -9.90625 "/></g></g></g><g fill="#000000" fill-opacity="1"><g transform="translate(61.605211, 20.820955)"><g><path d="M 9.171875 0 L 5.21875 -4.6875 L 1.515625 0 L 0.265625 0 L 4.96875 -4.96875 L 0.40625 -10.375 L 2.140625 -10.375 L 5.90625 -5.921875 L 9.328125 -10.375 L 10.578125 -10.375 L 6.140625 -5.625 L 10.890625 0 Z M 9.171875 0 "/></g></g></g><g fill="#000000" fill-opacity="1"><g transform="translate(72.754838, 20.820955)"><g><path d="M 11.359375 -9.90625 L 6.5625 -9.90625 L 6.5625 0 L 5.1875 0 L 5.1875 -9.90625 L 0.375 -9.90625 L 0.375 -10.375 L 11.359375 -10.375 Z M 11.359375 -9.90625 "/></g></g></g><g fill="#000000" fill-opacity="1"><g transform="translate(85.187916, 20.668412)"><g><path d="M 2.078125 -8.296875 L 2.078125 -7.078125 L 0.96875 -7.078125 L 0.96875 -8.296875 Z M 1.03125 -6.109375 L 2.015625 -6.109375 L 2.015625 0 L 1.03125 0 Z M 1.03125 -6.109375 "/></g></g></g><g fill="#000000" fill-opacity="1"><g transform="translate(92.020999, 20.668412)"><g><path d="M 3.171875 -5.21875 C 2.453125 -5.207031 1.90625 -5.015625 1.53125 -4.640625 C 1.15625 -4.265625 0.96875 -3.765625 0.96875 -3.140625 C 0.96875 -2.347656 1.21875 -1.769531 1.71875 -1.40625 C 2.21875 -1.050781 2.867188 -0.875 3.671875 -0.875 C 4.597656 -0.875 5.445312 -1.109375 6.21875 -1.578125 L 6.21875 -0.5 C 5.382812 -0.0820312 4.441406 0.125 3.390625 0.125 C 2.554688 0.125 1.878906 -0.101562 1.359375 -0.5625 C 0.847656 -1.03125 0.59375 -1.703125 0.59375 -2.578125 C 0.59375 -3.222656 0.722656 -3.820312 0.984375 -4.375 C 1.242188 -4.9375 1.613281 -5.382812 2.09375 -5.71875 C 2.582031 -6.050781 3.148438 -6.21875 3.796875 -6.21875 C 4.265625 -6.21875 4.671875 -6.171875 5.015625 -6.078125 C 5.359375 -5.992188 5.71875 -5.84375 6.09375 -5.625 L 6.09375 -4.484375 C 5.675781 -4.773438 5.226562 -4.972656 4.75 -5.078125 C 4.28125 -5.191406 3.753906 -5.238281 3.171875 -5.21875 Z M 3.171875 -5.21875 "/></g></g></g><g fill="#000000" fill-opacity="1"><g transform="translate(102.843573, 20.668412)"><g><path d="M 5.71875 0 L 3.328125 -3.03125 C 2.921875 -2.78125 2.484375 -2.53125 2.015625 -2.28125 L 2.015625 0 L 1.03125 0 L 1.03125 -8.546875 L 2.015625 -8.546875 L 2.015625 -2.546875 C 2.703125 -2.984375 3.320312 -3.492188 3.875 -4.078125 C 4.425781 -4.671875 4.9375 -5.347656 5.40625 -6.109375 L 6.734375 -6.109375 C 6.109375 -5.222656 5.242188 -4.382812 4.140625 -3.59375 L 6.984375 0 Z M 5.71875 0 "/></g></g></g><g fill="#000000" fill-opacity="1"><g transform="translate(113.97115, 20.668412)"><g><path d="M 1.0625 -2.4375 C 1.34375 -1.394531 2.195312 -0.875 3.625 -0.875 C 4.601562 -0.875 5.46875 -1.109375 6.21875 -1.578125 L 6.21875 -0.5 C 5.851562 -0.300781 5.425781 -0.144531 4.9375 -0.03125 C 4.457031 0.0703125 3.941406 0.125 3.390625 0.125 C 2.859375 0.125 2.378906 0.015625 1.953125 -0.203125 C 1.523438 -0.421875 1.191406 -0.742188 0.953125 -1.171875 C 0.710938 -1.597656 0.59375 -2.109375 0.59375 -2.703125 C 0.59375 -3.304688 0.722656 -3.878906 0.984375 -4.421875 C 1.242188 -4.960938 1.617188 -5.394531 2.109375 -5.71875 C 2.597656 -6.050781 3.160156 -6.21875 3.796875 -6.21875 C 4.335938 -6.21875 4.816406 -6.101562 5.234375 -5.875 C 5.660156 -5.644531 5.988281 -5.3125 6.21875 -4.875 C 6.457031 -4.445312 6.578125 -3.9375 6.578125 -3.34375 C 6.578125 -3.019531 6.546875 -2.71875 6.484375 -2.4375 Z M 3.171875 -5.21875 C 2.453125 -5.21875 1.90625 -5.046875 1.53125 -4.703125 C 1.15625 -4.359375 0.96875 -3.890625 0.96875 -3.296875 L 5.59375 -3.296875 L 5.59375 -3.34375 C 5.59375 -4.59375 4.785156 -5.21875 3.171875 -5.21875 Z M 3.171875 -5.21875 "/></g></g></g><g fill="#000000" fill-opacity="1"><g transform="translate(125.025525, 20.668412)"><g><path d="M 3.25 -0.828125 C 3.59375 -0.828125 3.96875 -0.890625 4.375 -1.015625 L 4.375 -0.078125 C 3.914062 0.0546875 3.425781 0.125 2.90625 0.125 C 2.175781 0.125 1.660156 -0.0820312 1.359375 -0.5 C 1.054688 -0.914062 0.90625 -1.53125 0.90625 -2.34375 C 0.90625 -3.28125 1.222656 -4.25 1.859375 -5.25 L 0.0625 -5.25 L 0.0625 -5.4375 C 0.644531 -5.539062 1.0625 -5.78125 1.3125 -6.15625 C 1.570312 -6.53125 1.753906 -7.082031 1.859375 -7.8125 L 2.03125 -7.8125 L 2.03125 -6.109375 L 4.484375 -6.109375 L 4.484375 -5.25 L 2.03125 -5.25 C 1.925781 -4.46875 1.875 -3.5625 1.875 -2.53125 C 1.875 -2.125 1.910156 -1.800781 1.984375 -1.5625 C 2.054688 -1.320312 2.191406 -1.140625 2.390625 -1.015625 C 2.585938 -0.890625 2.875 -0.828125 3.25 -0.828125 Z M 3.25 -0.828125 "/></g></g></g><g fill="#000000" fill-opacity="1"><g transform="translate(7.615587, 21.953293)"><g><path d="M 12.953125 -12.375 L 12.953125 0 L 11.109375 0 L 2.359375 -11.25 L 2.359375 0 L 1.734375 0 L 1.734375 -12.375 L 3.59375 -12.375 L 12.328125 -1.125 L 12.328125 -12.375 Z M 12.953125 -12.375 "/></g></g></g><g fill="#000000" fill-opacity="1"><g transform="translate(15.526876, 20.386728)"><g><path d="M 13.5625 -11.828125 L 7.828125 -11.828125 L 7.828125 0 L 6.1875 0 L 6.1875 -11.828125 L 0.453125 -11.828125 L 0.453125 -12.375 L 13.5625 -12.375 Z M 13.5625 -11.828125 "/></g></g></g><g clip-path="url(#332bd7703e)"><path fill="#000000" d="M 18.894531 28.933594 C 11.074219 28.933594 4.742188 22.554688 4.742188 14.78125 C 4.742188 7.003906 11.074219 0.628906 18.894531 0.628906 C 26.714844 0.628906 33.046875 6.960938 33.046875 14.78125 C 33.046875 22.597656 26.667969 28.933594 18.894531 28.933594 Z M 18.894531 1.5 C 11.554688 1.5 5.613281 7.441406 5.613281 14.78125 C 5.613281 22.117188 11.554688 28.058594 18.894531 28.058594 C 26.234375 28.058594 32.175781 22.117188 32.175781 14.78125 C 32.175781 7.441406 26.1875 1.5 18.894531 1.5 Z M 18.894531 1.5 " fill-opacity="1" fill-rule="nonzero"/></g></svg>