<svg xmlns="http://www.w3.org/2000/svg" xmlns:xlink="http://www.w3.org/1999/xlink" width="97" zoomAndPan="magnify" viewBox="0 0 72.75 71.249999" height="95" preserveAspectRatio="xMidYMid meet" version="1.0"><defs><g/><clipPath id="6889577efe"><path d="M 2.109375 1.914062 L 69.878906 1.914062 L 69.878906 69.6875 L 2.109375 69.6875 Z M 2.109375 1.914062 " clip-rule="nonzero"/></clipPath><clipPath id="294ff10339"><path d="M 1.742188 1.152344 L 71.003906 1.152344 L 71.003906 70.410156 L 1.742188 70.410156 Z M 1.742188 1.152344 " clip-rule="nonzero"/></clipPath><clipPath id="9c5dbdfcea"><path d="M 1.167969 0.574219 L 71.175781 0.574219 L 71.175781 70.507812 L 1.167969 70.507812 Z M 1.167969 0.574219 " clip-rule="nonzero"/></clipPath></defs><g clip-path="url(#6889577efe)"><path fill="#f5f5f5" d="M 69.878906 35.800781 C 69.878906 36.910156 69.824219 38.015625 69.71875 39.121094 C 69.609375 40.226562 69.445312 41.324219 69.230469 42.410156 C 69.011719 43.5 68.742188 44.574219 68.421875 45.636719 C 68.097656 46.699219 67.726562 47.742188 67.300781 48.769531 C 66.875 49.792969 66.402344 50.796875 65.878906 51.773438 C 65.355469 52.753906 64.785156 53.703125 64.167969 54.625 C 63.554688 55.550781 62.894531 56.4375 62.1875 57.296875 C 61.484375 58.15625 60.738281 58.976562 59.957031 59.761719 C 59.171875 60.546875 58.347656 61.289062 57.492188 61.996094 C 56.632812 62.699219 55.742188 63.359375 54.820312 63.976562 C 53.898438 64.589844 52.945312 65.160156 51.96875 65.683594 C 50.988281 66.207031 49.988281 66.683594 48.960938 67.105469 C 47.9375 67.53125 46.894531 67.90625 45.832031 68.226562 C 44.769531 68.550781 43.695312 68.816406 42.605469 69.035156 C 41.515625 69.25 40.421875 69.414062 39.316406 69.523438 C 38.210938 69.632812 37.105469 69.6875 35.996094 69.6875 C 34.886719 69.6875 33.777344 69.632812 32.671875 69.523438 C 31.570312 69.414062 30.472656 69.25 29.382812 69.035156 C 28.296875 68.816406 27.21875 68.550781 26.160156 68.226562 C 25.097656 67.90625 24.050781 67.53125 23.027344 67.105469 C 22 66.683594 21 66.207031 20.019531 65.683594 C 19.042969 65.160156 18.089844 64.589844 17.167969 63.976562 C 16.246094 63.359375 15.355469 62.699219 14.496094 61.996094 C 13.640625 61.289062 12.820312 60.546875 12.035156 59.761719 C 11.25 58.976562 10.503906 58.15625 9.800781 57.296875 C 9.097656 56.4375 8.4375 55.550781 7.820312 54.625 C 7.203125 53.703125 6.632812 52.753906 6.109375 51.773438 C 5.585938 50.796875 5.113281 49.792969 4.6875 48.769531 C 4.265625 47.742188 3.890625 46.699219 3.566406 45.636719 C 3.246094 44.574219 2.976562 43.5 2.761719 42.410156 C 2.542969 41.324219 2.382812 40.226562 2.273438 39.121094 C 2.164062 38.015625 2.109375 36.910156 2.109375 35.800781 C 2.109375 34.691406 2.164062 33.582031 2.273438 32.480469 C 2.382812 31.375 2.542969 30.277344 2.761719 29.191406 C 2.976562 28.101562 3.246094 27.027344 3.566406 25.964844 C 3.890625 24.902344 4.265625 23.859375 4.6875 22.832031 C 5.113281 21.808594 5.585938 20.804688 6.109375 19.828125 C 6.632812 18.847656 7.203125 17.898438 7.820312 16.972656 C 8.4375 16.050781 9.097656 15.160156 9.800781 14.304688 C 10.503906 13.445312 11.25 12.625 12.035156 11.839844 C 12.820312 11.054688 13.640625 10.308594 14.496094 9.605469 C 15.355469 8.902344 16.246094 8.242188 17.167969 7.625 C 18.089844 7.007812 19.042969 6.4375 20.019531 5.914062 C 21 5.394531 22 4.917969 23.027344 4.496094 C 24.050781 4.070312 25.097656 3.695312 26.160156 3.375 C 27.21875 3.050781 28.296875 2.78125 29.382812 2.566406 C 30.472656 2.347656 31.570312 2.1875 32.671875 2.078125 C 33.777344 1.96875 34.886719 1.914062 35.996094 1.914062 C 37.105469 1.914062 38.210938 1.96875 39.316406 2.078125 C 40.421875 2.1875 41.515625 2.347656 42.605469 2.566406 C 43.695312 2.78125 44.769531 3.050781 45.832031 3.375 C 46.894531 3.695312 47.9375 4.070312 48.960938 4.496094 C 49.988281 4.917969 50.988281 5.394531 51.96875 5.914062 C 52.945312 6.4375 53.898438 7.007812 54.820312 7.625 C 55.742188 8.242188 56.632812 8.902344 57.492188 9.605469 C 58.347656 10.308594 59.171875 11.054688 59.957031 11.839844 C 60.738281 12.625 61.484375 13.445312 62.1875 14.304688 C 62.894531 15.160156 63.554688 16.050781 64.167969 16.972656 C 64.785156 17.898438 65.355469 18.847656 65.878906 19.828125 C 66.402344 20.804688 66.875 21.808594 67.300781 22.832031 C 67.726562 23.859375 68.097656 24.902344 68.421875 25.964844 C 68.742188 27.027344 69.011719 28.101562 69.230469 29.191406 C 69.445312 30.277344 69.609375 31.375 69.71875 32.480469 C 69.824219 33.582031 69.878906 34.691406 69.878906 35.800781 Z M 69.878906 35.800781 " fill-opacity="1" fill-rule="nonzero"/></g><g clip-path="url(#294ff10339)"><path fill="#000000" d="M 36.375 70.410156 C 17.242188 70.410156 1.742188 54.804688 1.742188 35.78125 C 1.742188 16.753906 17.242188 1.152344 36.375 1.152344 C 55.507812 1.152344 71.003906 16.648438 71.003906 35.78125 C 71.003906 54.914062 55.398438 70.410156 36.375 70.410156 Z M 36.375 3.289062 C 18.417969 3.289062 3.882812 17.824219 3.882812 35.78125 C 3.882812 53.738281 18.417969 68.273438 36.375 68.273438 C 54.332031 68.273438 68.867188 53.738281 68.867188 35.78125 C 68.867188 17.824219 54.222656 3.289062 36.375 3.289062 Z M 36.375 3.289062 " fill-opacity="1" fill-rule="nonzero"/></g><g clip-path="url(#9c5dbdfcea)"><path fill="#000000" d="M 36.171875 70.582031 C 16.832031 70.582031 1.167969 54.808594 1.167969 35.578125 C 1.167969 16.347656 16.832031 0.574219 36.171875 0.574219 C 55.507812 0.574219 71.175781 16.238281 71.175781 35.578125 C 71.175781 54.914062 55.402344 70.582031 36.171875 70.582031 Z M 36.171875 2.734375 C 18.023438 2.734375 3.328125 17.429688 3.328125 35.578125 C 3.328125 53.726562 18.023438 68.421875 36.171875 68.421875 C 54.320312 68.421875 69.011719 53.726562 69.011719 35.578125 C 69.011719 17.429688 54.210938 2.734375 36.171875 2.734375 Z M 36.171875 2.734375 " fill-opacity="1" fill-rule="nonzero"/></g><g fill="#000000" fill-opacity="1"><g transform="translate(12.093016, 53.49605)"><g><path d="M 27.6875 -26.453125 L 27.6875 0 L 23.71875 0 L 5.0625 -24.03125 L 5.0625 0 L 3.6875 0 L 3.6875 -26.453125 L 7.65625 -26.453125 L 26.328125 -2.40625 L 26.328125 -26.453125 Z M 27.6875 -26.453125 "/></g></g></g><g fill="#000000" fill-opacity="1"><g transform="translate(30.37066, 49.223691)"><g><path d="M 28.96875 -25.28125 L 16.71875 -25.28125 L 16.71875 0 L 13.21875 0 L 13.21875 -25.28125 L 0.96875 -25.28125 L 0.96875 -26.453125 L 28.96875 -26.453125 Z M 28.96875 -25.28125 "/></g></g></g><g fill="#000000" fill-opacity="1"><g transform="translate(30.37066, 48.295191)"><g><path d="M 28.96875 -25.28125 L 16.71875 -25.28125 L 16.71875 0 L 13.21875 0 L 13.21875 -25.28125 L 0.96875 -25.28125 L 0.96875 -26.453125 L 28.96875 -26.453125 Z M 28.96875 -25.28125 "/></g></g></g><g fill="#000000" fill-opacity="1"><g transform="translate(11.441054, 53.49605)"><g><path d="M 27.6875 -26.453125 L 27.6875 0 L 23.71875 0 L 5.0625 -24.03125 L 5.0625 0 L 3.6875 0 L 3.6875 -26.453125 L 7.65625 -26.453125 L 26.328125 -2.40625 L 26.328125 -26.453125 Z M 27.6875 -26.453125 "/></g></g></g></svg>