<svg xmlns="http://www.w3.org/2000/svg" xmlns:xlink="http://www.w3.org/1999/xlink" width="392" zoomAndPan="magnify" viewBox="0 0 294 62.249996" height="83" preserveAspectRatio="xMidYMid meet" version="1.0"><defs><g/><clipPath id="ae2c85470f"><path d="M 3.015625 1.066406 L 62.300781 1.066406 L 62.300781 60.355469 L 3.015625 60.355469 Z M 3.015625 1.066406 " clip-rule="nonzero"/></clipPath><clipPath id="eaac127d5a"><path d="M 2.519531 0.570312 L 63.285156 0.570312 L 63.285156 61.339844 L 2.519531 61.339844 Z M 2.519531 0.570312 " clip-rule="nonzero"/></clipPath></defs><g clip-path="url(#ae2c85470f)"><path fill="#57534e" d="M 32.65625 60.355469 C 16.28125 60.355469 3.015625 46.996094 3.015625 30.710938 C 3.015625 14.425781 16.28125 1.066406 32.65625 1.066406 C 49.035156 1.066406 62.300781 14.335938 62.300781 30.710938 C 62.300781 47.085938 48.941406 60.355469 32.65625 60.355469 Z M 32.65625 2.898438 C 17.285156 2.898438 4.84375 15.339844 4.84375 30.710938 C 4.84375 46.082031 17.285156 58.523438 32.65625 58.523438 C 48.027344 58.523438 60.46875 46.082031 60.46875 30.710938 C 60.46875 15.339844 47.9375 2.898438 32.65625 2.898438 Z M 32.65625 2.898438 " fill-opacity="1" fill-rule="nonzero"/></g><g clip-path="url(#eaac127d5a)"><path fill="#57534e" d="M 32.902344 61.339844 C 16.117188 61.339844 2.519531 47.648438 2.519531 30.957031 C 2.519531 14.261719 16.117188 0.570312 32.902344 0.570312 C 49.6875 0.570312 63.285156 14.167969 63.285156 30.957031 C 63.285156 47.742188 49.59375 61.339844 32.902344 61.339844 Z M 32.902344 2.449219 C 17.148438 2.449219 4.394531 15.199219 4.394531 30.957031 C 4.394531 46.710938 17.148438 59.464844 32.902344 59.464844 C 48.65625 59.464844 61.410156 46.710938 61.410156 30.957031 C 61.410156 15.199219 48.5625 2.449219 32.902344 2.449219 Z M 32.902344 2.449219 " fill-opacity="1" fill-rule="nonzero"/></g><g fill="#57534e" fill-opacity="1"><g transform="translate(11.940958, 46.220424)"><g><path d="M 23.890625 -22.8125 L 23.890625 0 L 20.46875 0 L 4.359375 -20.734375 L 4.359375 0 L 3.1875 0 L 3.1875 -22.8125 L 6.609375 -22.8125 L 22.71875 -2.078125 L 22.71875 -22.8125 Z M 23.890625 -22.8125 "/></g></g></g><g fill="#57534e" fill-opacity="1"><g transform="translate(27.706971, 42.535154)"><g><path d="M 25 -21.8125 L 14.421875 -21.8125 L 14.421875 0 L 11.40625 0 L 11.40625 -21.8125 L 0.84375 -21.8125 L 0.84375 -22.8125 L 25 -22.8125 Z M 25 -21.8125 "/></g></g></g><g fill="#57534e" fill-opacity="1"><g transform="translate(27.706971, 41.734244)"><g><path d="M 25 -21.8125 L 14.421875 -21.8125 L 14.421875 0 L 11.40625 0 L 11.40625 -21.8125 L 0.84375 -21.8125 L 0.84375 -22.8125 L 25 -22.8125 Z M 25 -21.8125 "/></g></g></g><g fill="#57534e" fill-opacity="1"><g transform="translate(11.378585, 46.220424)"><g><path d="M 23.890625 -22.8125 L 23.890625 0 L 20.46875 0 L 4.359375 -20.734375 L 4.359375 0 L 3.1875 0 L 3.1875 -22.8125 L 6.609375 -22.8125 L 22.71875 -2.078125 L 22.71875 -22.8125 Z M 23.890625 -22.8125 "/></g></g></g><g fill="#57534e" fill-opacity="1"><g transform="translate(70.226146, 42.151236)"><g><path d="M 20.484375 -19.5625 L 20.484375 0 L 17.546875 0 L 3.734375 -17.78125 L 3.734375 0 L 2.734375 0 L 2.734375 -19.5625 L 5.671875 -19.5625 L 19.46875 -1.78125 L 19.46875 -19.5625 Z M 20.484375 -19.5625 "/></g></g></g><g fill="#57534e" fill-opacity="1"><g transform="translate(93.440532, 42.151236)"><g><path d="M 5.328125 -18.703125 L 5.328125 -10.265625 L 18 -10.265625 L 18 -9.40625 L 5.328125 -9.40625 L 5.328125 -0.859375 L 19.453125 -0.859375 L 19.453125 0 L 2.734375 0 L 2.734375 -19.5625 L 19.453125 -19.5625 L 19.453125 -18.703125 Z M 5.328125 -18.703125 "/></g></g></g><g fill="#57534e" fill-opacity="1"><g transform="translate(115.101538, 42.151236)"><g><path d="M 17.28125 0 L 9.84375 -8.828125 L 2.84375 0 L 0.484375 0 L 9.375 -9.375 L 0.78125 -19.5625 L 4.03125 -19.5625 L 11.125 -11.15625 L 17.609375 -19.5625 L 19.96875 -19.5625 L 11.59375 -10.609375 L 20.53125 0 Z M 17.28125 0 "/></g></g></g><g fill="#57534e" fill-opacity="1"><g transform="translate(136.129685, 42.151236)"><g><path d="M 21.4375 -18.703125 L 12.375 -18.703125 L 12.375 0 L 9.78125 0 L 9.78125 -18.703125 L 0.71875 -18.703125 L 0.71875 -19.5625 L 21.4375 -19.5625 Z M 21.4375 -18.703125 "/></g></g></g><g fill="#57534e" fill-opacity="1"><g transform="translate(159.578418, 41.863542)"><g><path d="M 3.90625 -15.65625 L 3.90625 -13.34375 L 1.84375 -13.34375 L 1.84375 -15.65625 Z M 1.953125 -11.515625 L 3.796875 -11.515625 L 3.796875 0 L 1.953125 0 Z M 1.953125 -11.515625 "/></g></g></g><g fill="#57534e" fill-opacity="1"><g transform="translate(172.465584, 41.863542)"><g><path d="M 5.984375 -9.84375 C 4.628906 -9.820312 3.59375 -9.457031 2.875 -8.75 C 2.164062 -8.039062 1.8125 -7.097656 1.8125 -5.921875 C 1.8125 -4.429688 2.285156 -3.347656 3.234375 -2.671875 C 4.179688 -1.992188 5.410156 -1.65625 6.921875 -1.65625 C 8.671875 -1.65625 10.269531 -2.09375 11.71875 -2.96875 L 11.71875 -0.9375 C 10.15625 -0.15625 8.378906 0.234375 6.390625 0.234375 C 4.828125 0.234375 3.554688 -0.203125 2.578125 -1.078125 C 1.609375 -1.953125 1.125 -3.210938 1.125 -4.859375 C 1.125 -6.085938 1.367188 -7.222656 1.859375 -8.265625 C 2.347656 -9.316406 3.050781 -10.15625 3.96875 -10.78125 C 4.882812 -11.414062 5.945312 -11.734375 7.15625 -11.734375 C 8.050781 -11.734375 8.816406 -11.648438 9.453125 -11.484375 C 10.097656 -11.316406 10.773438 -11.023438 11.484375 -10.609375 L 11.484375 -8.46875 C 10.703125 -9.007812 9.863281 -9.378906 8.96875 -9.578125 C 8.082031 -9.785156 7.085938 -9.875 5.984375 -9.84375 Z M 5.984375 -9.84375 "/></g></g></g><g fill="#57534e" fill-opacity="1"><g transform="translate(192.876911, 41.863542)"><g><path d="M 10.796875 0 L 6.28125 -5.734375 C 5.507812 -5.253906 4.679688 -4.773438 3.796875 -4.296875 L 3.796875 0 L 1.953125 0 L 1.953125 -16.109375 L 3.796875 -16.109375 L 3.796875 -4.8125 C 5.097656 -5.632812 6.265625 -6.597656 7.296875 -7.703125 C 8.335938 -8.816406 9.304688 -10.085938 10.203125 -11.515625 L 12.703125 -11.515625 C 11.523438 -9.847656 9.890625 -8.265625 7.796875 -6.765625 L 13.171875 0 Z M 10.796875 0 "/></g></g></g><g fill="#57534e" fill-opacity="1"><g transform="translate(213.863472, 41.863542)"><g><path d="M 2 -4.609375 C 2.519531 -2.640625 4.128906 -1.65625 6.828125 -1.65625 C 8.671875 -1.65625 10.300781 -2.09375 11.71875 -2.96875 L 11.71875 -0.9375 C 11.039062 -0.570312 10.242188 -0.285156 9.328125 -0.078125 C 8.421875 0.128906 7.441406 0.234375 6.390625 0.234375 C 5.378906 0.234375 4.472656 0.0234375 3.671875 -0.390625 C 2.878906 -0.804688 2.253906 -1.414062 1.796875 -2.21875 C 1.347656 -3.019531 1.125 -3.976562 1.125 -5.09375 C 1.125 -6.238281 1.367188 -7.320312 1.859375 -8.34375 C 2.347656 -9.363281 3.050781 -10.179688 3.96875 -10.796875 C 4.894531 -11.421875 5.957031 -11.734375 7.15625 -11.734375 C 8.1875 -11.734375 9.097656 -11.515625 9.890625 -11.078125 C 10.691406 -10.640625 11.3125 -10.015625 11.75 -9.203125 C 12.1875 -8.390625 12.40625 -7.425781 12.40625 -6.3125 C 12.40625 -5.695312 12.34375 -5.128906 12.21875 -4.609375 Z M 5.984375 -9.84375 C 4.628906 -9.84375 3.59375 -9.515625 2.875 -8.859375 C 2.164062 -8.210938 1.8125 -7.332031 1.8125 -6.21875 L 10.5625 -6.21875 L 10.5625 -6.3125 C 10.5625 -8.664062 9.035156 -9.84375 5.984375 -9.84375 Z M 5.984375 -9.84375 "/></g></g></g><g fill="#57534e" fill-opacity="1"><g transform="translate(234.711975, 41.863542)"><g><path d="M 6.125 -1.5625 C 6.78125 -1.5625 7.484375 -1.675781 8.234375 -1.90625 L 8.234375 -0.140625 C 7.378906 0.109375 6.460938 0.234375 5.484375 0.234375 C 4.097656 0.234375 3.117188 -0.15625 2.546875 -0.9375 C 1.984375 -1.726562 1.703125 -2.890625 1.703125 -4.421875 C 1.703125 -6.179688 2.300781 -8.003906 3.5 -9.890625 L 0.109375 -9.890625 L 0.109375 -10.234375 C 1.210938 -10.441406 2.003906 -10.898438 2.484375 -11.609375 C 2.972656 -12.328125 3.3125 -13.367188 3.5 -14.734375 L 3.828125 -14.734375 L 3.828125 -11.515625 L 8.46875 -11.515625 L 8.46875 -9.890625 L 3.828125 -9.890625 C 3.640625 -8.421875 3.546875 -6.710938 3.546875 -4.765625 C 3.546875 -3.992188 3.613281 -3.378906 3.75 -2.921875 C 3.882812 -2.472656 4.132812 -2.132812 4.5 -1.90625 C 4.875 -1.675781 5.414062 -1.5625 6.125 -1.5625 Z M 6.125 -1.5625 "/></g></g></g><g fill="#57534e" fill-opacity="1"><g transform="translate(70.967217, 42.151236)"><g><path d="M 20.484375 -19.5625 L 20.484375 0 L 17.546875 0 L 3.734375 -17.78125 L 3.734375 0 L 2.734375 0 L 2.734375 -19.5625 L 5.671875 -19.5625 L 19.46875 -1.78125 L 19.46875 -19.5625 Z M 20.484375 -19.5625 "/></g></g></g><g fill="#57534e" fill-opacity="1"><g transform="translate(94.181603, 42.151236)"><g><path d="M 5.328125 -18.703125 L 5.328125 -10.265625 L 18 -10.265625 L 18 -9.40625 L 5.328125 -9.40625 L 5.328125 -0.859375 L 19.453125 -0.859375 L 19.453125 0 L 2.734375 0 L 2.734375 -19.5625 L 19.453125 -19.5625 L 19.453125 -18.703125 Z M 5.328125 -18.703125 "/></g></g></g><g fill="#57534e" fill-opacity="1"><g transform="translate(115.842609, 42.151236)"><g><path d="M 17.28125 0 L 9.84375 -8.828125 L 2.84375 0 L 0.484375 0 L 9.375 -9.375 L 0.78125 -19.5625 L 4.03125 -19.5625 L 11.125 -11.15625 L 17.609375 -19.5625 L 19.96875 -19.5625 L 11.59375 -10.609375 L 20.53125 0 Z M 17.28125 0 "/></g></g></g><g fill="#57534e" fill-opacity="1"><g transform="translate(136.870757, 42.151236)"><g><path d="M 21.4375 -18.703125 L 12.375 -18.703125 L 12.375 0 L 9.78125 0 L 9.78125 -18.703125 L 0.71875 -18.703125 L 0.71875 -19.5625 L 21.4375 -19.5625 Z M 21.4375 -18.703125 "/></g></g></g><g fill="#57534e" fill-opacity="1"><g transform="translate(159.578418, 41.597341)"><g><path d="M 3.90625 -15.65625 L 3.90625 -13.34375 L 1.84375 -13.34375 L 1.84375 -15.65625 Z M 1.953125 -11.515625 L 3.796875 -11.515625 L 3.796875 0 L 1.953125 0 Z M 1.953125 -11.515625 "/></g></g></g><g fill="#57534e" fill-opacity="1"><g transform="translate(172.465584, 41.597341)"><g><path d="M 5.984375 -9.84375 C 4.628906 -9.820312 3.59375 -9.457031 2.875 -8.75 C 2.164062 -8.039062 1.8125 -7.097656 1.8125 -5.921875 C 1.8125 -4.429688 2.285156 -3.347656 3.234375 -2.671875 C 4.179688 -1.992188 5.410156 -1.65625 6.921875 -1.65625 C 8.671875 -1.65625 10.269531 -2.09375 11.71875 -2.96875 L 11.71875 -0.9375 C 10.15625 -0.15625 8.378906 0.234375 6.390625 0.234375 C 4.828125 0.234375 3.554688 -0.203125 2.578125 -1.078125 C 1.609375 -1.953125 1.125 -3.210938 1.125 -4.859375 C 1.125 -6.085938 1.367188 -7.222656 1.859375 -8.265625 C 2.347656 -9.316406 3.050781 -10.15625 3.96875 -10.78125 C 4.882812 -11.414062 5.945312 -11.734375 7.15625 -11.734375 C 8.050781 -11.734375 8.816406 -11.648438 9.453125 -11.484375 C 10.097656 -11.316406 10.773438 -11.023438 11.484375 -10.609375 L 11.484375 -8.46875 C 10.703125 -9.007812 9.863281 -9.378906 8.96875 -9.578125 C 8.082031 -9.785156 7.085938 -9.875 5.984375 -9.84375 Z M 5.984375 -9.84375 "/></g></g></g><g fill="#57534e" fill-opacity="1"><g transform="translate(192.876911, 41.597341)"><g><path d="M 10.796875 0 L 6.28125 -5.734375 C 5.507812 -5.253906 4.679688 -4.773438 3.796875 -4.296875 L 3.796875 0 L 1.953125 0 L 1.953125 -16.109375 L 3.796875 -16.109375 L 3.796875 -4.8125 C 5.097656 -5.632812 6.265625 -6.597656 7.296875 -7.703125 C 8.335938 -8.816406 9.304688 -10.085938 10.203125 -11.515625 L 12.703125 -11.515625 C 11.523438 -9.847656 9.890625 -8.265625 7.796875 -6.765625 L 13.171875 0 Z M 10.796875 0 "/></g></g></g><g fill="#57534e" fill-opacity="1"><g transform="translate(213.863472, 41.597341)"><g><path d="M 2 -4.609375 C 2.519531 -2.640625 4.128906 -1.65625 6.828125 -1.65625 C 8.671875 -1.65625 10.300781 -2.09375 11.71875 -2.96875 L 11.71875 -0.9375 C 11.039062 -0.570312 10.242188 -0.285156 9.328125 -0.078125 C 8.421875 0.128906 7.441406 0.234375 6.390625 0.234375 C 5.378906 0.234375 4.472656 0.0234375 3.671875 -0.390625 C 2.878906 -0.804688 2.253906 -1.414062 1.796875 -2.21875 C 1.347656 -3.019531 1.125 -3.976562 1.125 -5.09375 C 1.125 -6.238281 1.367188 -7.320312 1.859375 -8.34375 C 2.347656 -9.363281 3.050781 -10.179688 3.96875 -10.796875 C 4.894531 -11.421875 5.957031 -11.734375 7.15625 -11.734375 C 8.1875 -11.734375 9.097656 -11.515625 9.890625 -11.078125 C 10.691406 -10.640625 11.3125 -10.015625 11.75 -9.203125 C 12.1875 -8.390625 12.40625 -7.425781 12.40625 -6.3125 C 12.40625 -5.695312 12.34375 -5.128906 12.21875 -4.609375 Z M 5.984375 -9.84375 C 4.628906 -9.84375 3.59375 -9.515625 2.875 -8.859375 C 2.164062 -8.210938 1.8125 -7.332031 1.8125 -6.21875 L 10.5625 -6.21875 L 10.5625 -6.3125 C 10.5625 -8.664062 9.035156 -9.84375 5.984375 -9.84375 Z M 5.984375 -9.84375 "/></g></g></g><g fill="#57534e" fill-opacity="1"><g transform="translate(234.711975, 41.597341)"><g><path d="M 6.125 -1.5625 C 6.78125 -1.5625 7.484375 -1.675781 8.234375 -1.90625 L 8.234375 -0.140625 C 7.378906 0.109375 6.460938 0.234375 5.484375 0.234375 C 4.097656 0.234375 3.117188 -0.15625 2.546875 -0.9375 C 1.984375 -1.726562 1.703125 -2.890625 1.703125 -4.421875 C 1.703125 -6.179688 2.300781 -8.003906 3.5 -9.890625 L 0.109375 -9.890625 L 0.109375 -10.234375 C 1.210938 -10.441406 2.003906 -10.898438 2.484375 -11.609375 C 2.972656 -12.328125 3.3125 -13.367188 3.5 -14.734375 L 3.828125 -14.734375 L 3.828125 -11.515625 L 8.46875 -11.515625 L 8.46875 -9.890625 L 3.828125 -9.890625 C 3.640625 -8.421875 3.546875 -6.710938 3.546875 -4.765625 C 3.546875 -3.992188 3.613281 -3.378906 3.75 -2.921875 C 3.882812 -2.472656 4.132812 -2.132812 4.5 -1.90625 C 4.875 -1.675781 5.414062 -1.5625 6.125 -1.5625 Z M 6.125 -1.5625 "/></g></g></g></svg>